<?xml version="1.0" encoding="UTF-8"?>
<svg id="Layer_2" data-name="Layer 2" xmlns="http://www.w3.org/2000/svg" viewBox="0 0 448 52.6">
  <defs>
    <style>
      .cls-1 {
        stroke-width: 0px;
      }
    </style>
  </defs>
  <g id="Layer_1-2" data-name="Layer 1">
    <path class="cls-1" d="m39.5.9H14.6L0,51.7h12.1l4.5-16.3h20.7l4.6,16.3h12.2L39.5.9Zm-20,24.3L25.5,3.8h3l6,21.5h-15Z"/>
    <path class="cls-1" d="m56.9.9h11.6v26.8c0,.7,0,1.2,0,1.7,0,3.1.3,5.6.8,7.4.6,1.8,1.6,3.2,3.2,4.1,1.6,1,4,1.4,7.2,1.4s5.7-.5,7.3-1.5c1.7-1,2.7-2.4,3.3-4.2.5-1.8.8-4.3.8-7.6,0-.4,0-.9,0-1.4V.9h11.6v31.9c0,6.4-2,11.3-5.9,14.7-3.9,3.4-9.6,5-17.2,5s-9.1-.8-12.5-2.3c-3.4-1.5-6-3.7-7.7-6.7-1.8-2.9-2.6-6.5-2.6-10.8V.9Z"/>
    <path class="cls-1" d="m150.1,48.6c-3.6,2.7-9.2,4.1-16.8,4.1s-14.8-1.8-18.9-5.3c-4.1-3.5-6.1-8.6-6.1-15.3h12c0,2.6.4,4.7,1.3,6.3.8,1.6,2.2,2.7,4.2,3.5,1.9.7,4.6,1.1,7.9,1.1s6-.4,7.6-1.3c1.6-.9,2.4-2.2,2.4-4.1s-.4-2.2-1.3-3c-.9-.8-2.2-1.5-3.9-1.9l-16.4-4.3c-4-1.1-6.9-2.8-8.7-5.1-1.8-2.3-2.7-5.1-2.7-8.5s1.7-8.4,5.2-10.9c3.5-2.5,8.4-3.8,14.9-3.8s9.3.7,12.7,2.2c3.5,1.5,6,3.6,7.8,6.3,1.7,2.8,2.6,6,2.6,9.7h-11.9c0-3-.9-5.2-2.7-6.6-1.8-1.4-4.6-2.1-8.4-2.1s-4.8.4-6.2,1.2c-1.4.8-2.1,2.1-2.1,3.8s.4,1.9,1.1,2.7c.7.7,2,1.3,3.7,1.8l16,4c4.1,1.1,7.1,2.8,9.2,5.1,2,2.4,3.1,5.4,3.1,9s-1.8,8.8-5.4,11.5Z"/>
    <polygon class="cls-1" points="202 .9 202 11 185.4 11 185.4 51.7 173.9 51.7 173.9 11 157.2 11 157.2 .9 202 .9"/>
    <polygon class="cls-1" points="255.2 .9 255.2 51.7 243.6 51.7 243.6 32 219.8 32 219.8 51.7 208.2 51.7 208.2 .9 219.8 .9 219.8 21.9 243.6 21.9 243.6 .9 255.2 .9"/>
    <path class="cls-1" d="m264,.9h39.1v10.1h-27.5v10.5h23.9v9.5h-23.9v10.6h27.5v10.1h-39.1V.9Z"/>
    <polygon class="cls-1" points="353.1 .9 353.1 11 336.5 11 336.5 51.7 325 51.7 325 11 308.4 11 308.4 .9 353.1 .9"/>
    <polygon class="cls-1" points="381.7 11 381.7 41.5 393.1 41.5 393.1 51.7 358.6 51.7 358.6 41.5 370.1 41.5 370.1 11 358.6 11 358.6 .9 393.1 .9 393.1 11 381.7 11"/>
    <path class="cls-1" d="m409,49.2c-3.9-2.3-7-5.4-9.1-9.4-2.1-4-3.2-8.5-3.2-13.5s1.1-9.5,3.2-13.5c2.1-4,5.2-7.1,9.1-9.4,4-2.3,8.6-3.4,13.9-3.4s8.9.8,12.5,2.5c3.6,1.7,6.5,4,8.6,7.1,2.2,3.1,3.5,6.7,4,10.9h-11.9c-.5-3.2-2-5.6-4.3-7.4-2.3-1.8-5.3-2.7-8.8-2.7s-5.5.6-7.7,1.8c-2.2,1.2-3.9,3-5,5.4-1.2,2.4-1.8,5.3-1.8,8.7s.6,6.4,1.8,8.7c1.2,2.4,2.9,4.2,5,5.4,2.2,1.2,4.7,1.8,7.7,1.8s6.5-.9,8.8-2.7c2.3-1.8,3.8-4.3,4.3-7.5h11.9c-.5,4.2-1.8,7.9-4,11-2.2,3.1-5.1,5.5-8.6,7.1-3.6,1.7-7.7,2.5-12.5,2.5s-10-1.1-13.9-3.4Z"/>
  </g>
</svg>