<?xml version="1.0" encoding="UTF-8"?>
<svg id="Layer_2" data-name="Layer 2" xmlns="http://www.w3.org/2000/svg" viewBox="0 0 45.7 45.7">
  <defs>
    <style>
      .cls-1 {
        stroke-width: 0px;
      }
    </style>
  </defs>
  <g id="TEXT">
    <g>
      <path class="cls-1" d="m25.3.5c0-.2-.2-.3-.4-.3-.2,0-.4-.1-.7-.1h-.4s-.5,0-.5,0l-.2,2.8h.5s0-.8,0-.8h.4c.4,0,.7,0,.9-.1.2-.1.3-.4.4-.7,0-.2,0-.4-.1-.6Zm-.5.8c0,0-.1.1-.2.1,0,0-.2,0-.4,0h-.4s0-1,0-1h.4c.2,0,.3,0,.4.1,0,0,.1,0,.2.2,0,0,0,.2,0,.3,0,.1,0,.2,0,.3Z"/>
      <path class="cls-1" d="m26.1.2l1.1.2c.2,0,.4.1.6.2s.3.2.4.3c0,.1.1.3,0,.5,0,.1,0,.2-.1.3s-.2.1-.2.2c0,0-.2,0-.3,0h0s0,.1,0,.1h.3c.1,0,.2.1.2.2s0,.2,0,.3l-.2.9h-.5c0-.1.2-1.1.2-1.1l-1.2-.2-.2,1h-.5c0-.1.5-2.9.5-2.9Zm.9,1.5c.1,0,.3,0,.3,0,0,0,.2,0,.2,0s0-.1.1-.2c0-.1,0-.2,0-.3,0,0,0-.1-.2-.1,0,0-.2,0-.3,0h-.6c0-.1-.2.7-.2.7h.6c0,.1,0,.1,0,.1Z"/>
      <path class="cls-1" d="m29,1.5c.2-.2.4-.3.6-.3.2,0,.5,0,.8,0,.3,0,.5.2.6.4s.3.4.3.7c0,.2,0,.5,0,.8,0,.3-.2.5-.4.7-.2.2-.4.3-.6.3s-.5,0-.8,0c-.3,0-.5-.2-.6-.4-.2-.2-.3-.4-.3-.7,0-.2,0-.5,0-.8,0-.3.2-.5.4-.6Zm0,1.4c0,.2,0,.3.2.4s.2.2.4.3c.2,0,.3,0,.5,0,.1,0,.3-.1.4-.2.1-.1.2-.3.3-.5,0-.2,0-.4,0-.5s0-.3-.2-.4-.2-.2-.4-.3c-.2,0-.3,0-.5,0-.1,0-.3.1-.4.2-.1.1-.2.3-.3.4,0,.2,0,.4,0,.5Z"/>
      <path class="cls-1" d="m30.9,4.5l.2-.4.9.4c.1,0,.2,0,.3,0,0,0,.2,0,.2-.1,0,0,.1-.2.2-.3,0,0,0,0,0,0l.5-1.1-1-.5.2-.4,1.2.6c.1,0,.2.1.2.2,0,0,0,.2,0,.2l-.7,1.4c-.1.3-.3.4-.5.5-.2,0-.4,0-.7,0l-1-.5Z"/>
      <path class="cls-1" d="m34.6,3.3l1.8,1.2-.3.4-1.3-.9-.4.6,1.1.8-.3.4-1.1-.8-.4.6,1.3.9-.3.4-1.8-1.2,1.6-2.3Z"/>
      <path class="cls-1" d="m35.6,7.2c0-.2,0-.5,0-.7,0-.2.2-.5.4-.7.2-.2.4-.4.6-.4.2,0,.5-.1.7,0,.2,0,.5.2.7.4.2.2.3.4.4.6,0,.2.1.4,0,.6,0,.2-.1.4-.2.6l-.4-.4c.1-.2.2-.3.1-.5s-.1-.3-.3-.5c-.1-.1-.3-.2-.4-.2-.1,0-.3,0-.4,0-.1,0-.3.2-.4.3-.1.2-.2.3-.3.5,0,.2,0,.3,0,.4,0,.1.1.3.3.4.2.1.3.2.5.2.2,0,.3,0,.5-.2l.4.4c-.2.2-.4.3-.6.3-.2,0-.4,0-.6,0-.2,0-.4-.2-.6-.3-.2-.2-.4-.4-.4-.6Z"/>
      <polygon class="cls-1" points="40.8 8.8 40.5 9.1 39.9 8.4 38.1 9.9 37.7 9.5 39.5 8 38.9 7.2 39.3 6.9 40.8 8.8"/>
    </g>
    <g>
      <path class="cls-1" d="m40.1,33l-.3.5.7.5-.2.3c-.2.4-.3.7-.3.9,0,.2.2.5.5.7.2.1.4.2.6.2.2,0,.3,0,.5-.2.1-.1.3-.3.5-.5l.2-.4.3-.4-2.4-1.6Zm1.4,2.1c0,.1-.2.2-.2.3,0,0-.2,0-.2,0s-.2,0-.3-.1c-.1,0-.2-.2-.2-.2,0,0,0-.2,0-.3,0,0,0-.2.2-.3l.2-.4.8.6-.2.4Z"/>
      <path class="cls-1" d="m40.8,37l-.8.9c-.2.2-.3.3-.5.4s-.3.2-.4.2c-.2,0-.3,0-.4-.2-.1,0-.2-.2-.2-.3s0-.2,0-.3c0,0,0-.2.1-.3h0s-.1-.1-.1-.1l-.2.2c0,0-.1.1-.2.1,0,0-.2,0-.2-.1l-.7-.6.4-.4.8.7.8-.9-.8-.7.4-.4,2.1,1.9Zm-1.8,0c0,.1-.2.2-.2.3,0,0,0,.2,0,.2,0,0,0,.2.2.2,0,0,.2.1.3.1,0,0,.1,0,.2,0,0,0,.2-.1.2-.3l.4-.4-.6-.5-.4.4h0Z"/>
      <path class="cls-1" d="m38.2,38.9c0,.2,0,.5,0,.7,0,.2-.2.4-.4.6s-.4.3-.7.3c-.2,0-.5,0-.7,0-.2,0-.4-.2-.6-.5-.2-.2-.3-.4-.4-.7,0-.2,0-.5,0-.7,0-.2.2-.4.4-.6.2-.2.4-.3.7-.3.2,0,.5,0,.7,0,.2,0,.4.2.6.5.2.2.3.4.4.7Zm-1.2-.6c-.1,0-.3,0-.4,0-.1,0-.3,0-.4.2-.1.1-.2.3-.3.4s0,.3,0,.4c0,.1.1.3.3.4.1.2.3.3.4.3.1,0,.3,0,.4,0,.1,0,.3,0,.4-.2.1-.1.2-.3.3-.4,0-.1,0-.3,0-.4,0-.1-.1-.3-.3-.4-.1-.2-.3-.3-.4-.3Z"/>
      <path class="cls-1" d="m34.7,39l.3.4-.8.5c-.1,0-.2.2-.2.2,0,0,0,.2,0,.3s0,.2.1.3c0,0,0,0,0,0l.7,1,1-.6.3.4-1.1.7c0,0-.2,0-.3,0,0,0-.1,0-.2-.2l-.9-1.3c-.2-.3-.2-.5-.2-.7,0-.2.2-.4.4-.6l.9-.6Z"/>
      <path class="cls-1" d="m33.9,42.8l-1.9.9-.2-.4,1.4-.7-.3-.6-1.2.6-.2-.4,1.2-.6-.3-.6-1.4.7-.2-.4,1.9-.9,1.2,2.5Z"/>
      <path class="cls-1" d="m30,41.7c.2,0,.5.2.6.3.2.2.3.4.4.7,0,.3.1.5,0,.8,0,.2-.1.5-.3.7-.2.2-.4.3-.7.4-.2,0-.5.1-.7,0-.2,0-.4,0-.6-.2-.2-.1-.3-.3-.4-.5l.5-.2c0,.2.2.3.4.4s.4,0,.6,0c.2,0,.3-.1.4-.3,0-.1.2-.2.2-.4,0-.2,0-.3,0-.5,0-.2-.2-.3-.3-.5-.1-.1-.2-.2-.4-.2-.1,0-.3,0-.5,0-.2,0-.4.2-.5.3,0,.2-.1.3,0,.5l-.5.2c0-.2,0-.4,0-.6,0-.2.2-.4.3-.5.2-.2.4-.3.6-.3.3,0,.5-.1.8,0Z"/>
      <polygon class="cls-1" points="28.4 45 26 45.5 25.9 45 26.8 44.8 26.4 42.5 26.9 42.4 27.4 44.7 28.3 44.5 28.4 45"/>
    </g>
    <g>
      <path class="cls-1" d="m5.2,11.7l.2-.3c.2-.4.3-.7.3-.9,0-.2-.2-.5-.5-.7-.2-.1-.4-.2-.5-.2s-.3,0-.5.2c-.2.1-.3.3-.5.5l-.2.3-.3.5,2.4,1.6.3-.5-.7-.5Zm-.4-.3l-.8-.5.2-.4c0-.1.2-.2.2-.3,0,0,.2,0,.2,0s.2,0,.3.1c0,0,.2.2.2.2,0,0,0,.2,0,.3,0,0,0,.2-.2.3l-.2.4Z"/>
      <path class="cls-1" d="m4.9,8.7l.8-.9c.2-.2.3-.3.5-.4s.3-.2.4-.2c.2,0,.3,0,.4.2.1,0,.2.2.2.3s0,.2,0,.3,0,.2-.1.3h0s.1.1.1.1l.2-.2c0,0,.1-.1.2-.1,0,0,.2,0,.2.1l.7.6-.4.4-.8-.7-.8.9.8.7-.4.4-2.1-1.9Zm1.8,0c0-.1.2-.2.2-.3,0,0,0-.2,0-.2,0,0,0-.2-.2-.2,0,0-.2-.1-.3-.1,0,0-.1,0-.2,0,0,0-.2.1-.3.3l-.4.4.6.5.4-.4h0Z"/>
      <path class="cls-1" d="m7.5,6.8c0-.2,0-.5,0-.7,0-.2.2-.4.4-.6s.4-.3.7-.3.5,0,.7,0c.2,0,.4.2.6.5.2.2.3.4.4.7,0,.2,0,.5,0,.7,0,.2-.2.4-.4.6-.2.2-.4.3-.7.3-.2,0-.5,0-.7,0-.2,0-.4-.2-.6-.5-.2-.2-.3-.4-.4-.7Zm1.2.6c.1,0,.3,0,.4,0,.1,0,.3,0,.4-.2.1-.1.2-.3.3-.4s0-.3,0-.4c0-.1-.1-.3-.3-.4-.1-.2-.3-.3-.4-.3-.1,0-.3,0-.4,0-.1,0-.3,0-.4.2-.1.1-.2.3-.3.4,0,.1,0,.3,0,.4,0,.1.1.3.3.4.1.2.3.3.4.3Z"/>
      <path class="cls-1" d="m11,6.7l-.3-.4.8-.5c.1,0,.2-.2.2-.2,0,0,0-.2,0-.3s0-.2-.1-.3c0,0,0,0,0,0l-.7-1-1,.6-.3-.4,1.1-.7c0,0,.2,0,.3,0,0,0,.1,0,.2.2l.9,1.3c.2.3.2.5.2.7,0,.2-.2.4-.4.6l-.9.6Z"/>
      <path class="cls-1" d="m11.8,2.8l1.9-.9.2.4-1.4.7.3.6,1.2-.6.2.4-1.2.6.3.6,1.4-.7.2.4-1.9.9-1.2-2.5Z"/>
      <path class="cls-1" d="m15.7,4c-.2,0-.5-.2-.6-.3-.2-.2-.3-.4-.4-.7,0-.3-.1-.5,0-.8,0-.2.1-.5.3-.7.2-.2.4-.3.7-.4.2,0,.5-.1.7,0,.2,0,.4,0,.6.2.2.1.3.3.4.5l-.5.2c0-.2-.2-.3-.4-.4s-.4,0-.6,0c-.2,0-.3.1-.4.3,0,.1-.2.2-.2.4,0,.2,0,.3,0,.5,0,.2.2.3.3.5.1.1.2.2.4.2.1,0,.3,0,.5,0,.2,0,.4-.2.5-.3,0-.2.1-.3,0-.5l.5-.2c0,.2,0,.4,0,.6,0,.2-.2.4-.3.5-.2.2-.4.3-.6.3-.3,0-.5.1-.8,0Z"/>
      <polygon class="cls-1" points="18.8 .9 19.3 3.2 18.7 3.3 18.3 1 17.4 1.2 17.3 .7 19.7 .2 19.7 .7 18.8 .9"/>
    </g>
    <g>
      <path class="cls-1" d="m43.2,12.6l-.2-.4-.2-.5-2.5,1.3.2.5.8-.4.2.4c.2.4.4.6.6.7.2.1.5,0,.8,0,.2-.1.4-.2.5-.4,0-.2.1-.3,0-.5s0-.4-.2-.7Zm-.3.8c0,0-.1.1-.2.2s-.2,0-.3,0c0,0-.2,0-.2-.1,0,0-.1-.2-.2-.3l-.2-.4.9-.5.2.4c0,.1.1.2.1.3,0,0,0,.2,0,.3Z"/>
      <path class="cls-1" d="m44.1,14.3l.4,1.1c0,.2.1.4.1.6,0,.2,0,.3,0,.5,0,.1-.2.2-.4.3-.1,0-.2,0-.3,0-.1,0-.2,0-.3-.1,0,0-.1-.2-.2-.2h0s-.1,0-.1,0v.3c.1.1.1.2,0,.3,0,0-.1.1-.2.2l-.9.3-.2-.5,1-.3-.4-1.2-1,.3-.2-.5,2.7-.9Zm-.9,1.5c0,.1,0,.2.1.3,0,0,.1.1.2.1,0,0,.2,0,.3,0,.1,0,.2,0,.2-.2s0-.1,0-.2c0,0,0-.2,0-.3l-.2-.6-.8.3.2.6h0Z"/>
      <path class="cls-1" d="m44.4,17.5c.2,0,.4.2.6.4.2.2.3.4.3.7,0,.3,0,.5,0,.8,0,.2-.2.4-.4.6-.2.2-.4.3-.7.3-.3,0-.5,0-.8,0-.2,0-.4-.2-.6-.4-.2-.2-.3-.4-.3-.7,0-.3,0-.5,0-.8,0-.2.2-.4.4-.6.2-.2.4-.3.7-.3.3,0,.5,0,.8,0Zm-1.1.7c-.1,0-.2.2-.3.3,0,.1,0,.3,0,.5,0,.2.1.3.2.4.1.1.2.2.4.2.2,0,.3,0,.5,0,.2,0,.4,0,.5-.2s.2-.2.3-.3c0-.1,0-.3,0-.5,0-.2-.1-.3-.2-.4-.1-.1-.2-.2-.4-.2s-.3,0-.5,0c-.2,0-.4,0-.5.2Z"/>
      <path class="cls-1" d="m42.8,20.6h.5s0,.9,0,.9c0,.1,0,.2,0,.3,0,0,.1.1.2.1,0,0,.2,0,.3,0,0,0,0,0,0,0h1.2c0,0,0-1.2,0-1.2h.5s0,1.3,0,1.3c0,.1,0,.2,0,.3,0,0-.1,0-.2,0h-1.6c-.3.1-.5,0-.7-.1-.2-.1-.3-.4-.3-.7v-1.1Z"/>
      <path class="cls-1" d="m45.7,23.3v2.1c-.1,0-.6,0-.6,0v-1.6c0,0-.6,0-.6,0v1.4c0,0-.5,0-.5,0v-1.4c0,0-.6,0-.6,0v1.6c-.1,0-.6,0-.6,0v-2.1c.1,0,3,.2,3,.2Z"/>
      <path class="cls-1" d="m42.7,26.1c.2-.2.4-.3.6-.4.2,0,.5,0,.8,0,.3,0,.5.2.7.3.2.2.3.4.4.6,0,.2,0,.5,0,.8,0,.3-.1.5-.3.6-.1.2-.3.3-.5.4-.2,0-.4.1-.6,0v-.6c.3,0,.5,0,.6-.2.1-.1.2-.3.3-.5,0-.2,0-.3,0-.5,0-.1-.1-.3-.3-.4-.1,0-.3-.2-.5-.2-.2,0-.4,0-.5,0-.2,0-.3.1-.4.2-.1.1-.2.2-.2.4,0,.2,0,.4,0,.6,0,.2.2.3.4.3v.6c-.3,0-.5-.2-.7-.3-.1-.1-.2-.3-.3-.5,0-.2,0-.4,0-.7,0-.3.2-.5.3-.7Z"/>
      <polygon class="cls-1" points="44.8 29.1 44 31.4 43.6 31.2 43.9 30.4 41.7 29.6 41.8 29.1 44.1 29.8 44.4 28.9 44.8 29.1"/>
    </g>
    <g>
      <path class="cls-1" d="m22.1,42.8v.9s-.5,0-.5,0c-.4,0-.7,0-.9.2s-.3.4-.3.7c0,.2,0,.4,0,.6,0,.1.2.3.4.3.2,0,.4.1.7.1h.4s.5,0,.5,0l.2-2.8h-.6Zm-.1,2.3h-.5c-.2,0-.3,0-.4,0,0,0-.2,0-.2-.2,0,0,0-.2,0-.3s0-.2,0-.3c0,0,.1-.1.2-.1,0,0,.2,0,.4,0h.5s0,1,0,1Z"/>
      <path class="cls-1" d="m19.6,45.5l-1.1-.2c-.2,0-.4-.1-.6-.2s-.3-.2-.4-.3c0-.1-.1-.3,0-.5,0-.1,0-.2.1-.3s.2-.1.2-.2c0,0,.2,0,.3,0h0s0-.1,0-.1h-.3c-.1,0-.2-.1-.2-.2s0-.2,0-.3l.2-.9h.5c0,.1-.2,1.1-.2,1.1l1.2.2.2-1h.5c0,.1-.5,2.9-.5,2.9Zm-.9-1.5c-.1,0-.3,0-.3,0,0,0-.2,0-.2,0s0,.1-.1.2c0,.1,0,.2,0,.3,0,0,0,.1.2.1,0,0,.2,0,.3,0h.6c0,.1.2-.7.2-.7h-.6c0-.1,0-.1,0-.1Z"/>
      <path class="cls-1" d="m16.6,44.2c-.2.2-.4.3-.6.3-.2,0-.5,0-.8,0-.3,0-.5-.2-.6-.4s-.3-.4-.3-.7c0-.2,0-.5,0-.8,0-.3.2-.5.4-.7.2-.2.4-.3.6-.3s.5,0,.8,0c.3,0,.5.2.6.4.2.2.3.4.3.7,0,.2,0,.5,0,.8,0,.3-.2.5-.4.6Zm0-1.4c0-.2,0-.3-.2-.4s-.2-.2-.4-.3c-.2,0-.3,0-.5,0-.1,0-.3.1-.4.2-.1.1-.2.3-.3.5,0,.2,0,.4,0,.5s0,.3.2.4.2.2.4.3c.2,0,.3,0,.5,0,.1,0,.3-.1.4-.2.1-.1.2-.3.3-.4,0-.2,0-.4,0-.5Z"/>
      <path class="cls-1" d="m14.8,41.2l-.2.4-.9-.4c-.1,0-.2,0-.3,0,0,0-.2,0-.2.1,0,0-.1.2-.2.3,0,0,0,0,0,0l-.5,1.1,1,.5-.2.4-1.2-.6c-.1,0-.2-.1-.2-.2,0,0,0-.2,0-.2l.7-1.4c.1-.3.3-.4.5-.5.2,0,.4,0,.7,0l1,.5Z"/>
      <path class="cls-1" d="m11,42.4l-1.8-1.2.3-.4,1.3.9.4-.6-1.1-.8.3-.4,1.1.8.4-.6-1.3-.9.3-.4,1.8,1.2-1.6,2.3Z"/>
      <path class="cls-1" d="m10.1,38.4c0,.2,0,.5,0,.7,0,.2-.2.5-.4.7-.2.2-.4.4-.6.4-.2,0-.5.1-.7,0-.2,0-.5-.2-.7-.4-.2-.2-.3-.4-.4-.6,0-.2-.1-.4,0-.6,0-.2.1-.4.2-.6l.4.4c-.1.2-.2.3-.1.5s.1.3.3.5c.1.1.3.2.4.2s.3,0,.4,0c.1,0,.3-.2.4-.3.1-.2.2-.3.3-.5,0-.2,0-.3,0-.4s-.1-.3-.3-.4c-.2-.1-.3-.2-.5-.2-.2,0-.3,0-.5.2l-.4-.4c.2-.2.4-.3.6-.3.2,0,.4,0,.6,0,.2,0,.4.2.6.3.2.2.4.4.4.6Z"/>
      <polygon class="cls-1" points="6.2 37.7 6.8 38.4 6.4 38.7 4.8 36.9 5.2 36.6 5.8 37.3 7.6 35.8 7.9 36.2 6.2 37.7"/>
    </g>
    <g>
      <path class="cls-1" d="m5.1,32.2l-.8.4-.2-.4c-.2-.4-.4-.6-.6-.7-.2-.1-.5,0-.8,0-.2.1-.4.2-.4.4,0,.1-.1.3-.1.5,0,.2.1.4.2.7l.2.4.2.5,2.5-1.3-.2-.5Zm-2.1,1l-.2-.4c0-.1,0-.2-.1-.3,0-.1,0-.2,0-.3,0,0,.1-.1.2-.2.1,0,.2,0,.3,0,0,0,.2,0,.2.1s.1.2.2.3l.2.4-.9.5Z"/>
      <path class="cls-1" d="m1.6,31.3l-.4-1.1c0-.2-.1-.4-.1-.6,0-.2,0-.3,0-.5s.2-.2.4-.3c.1,0,.2,0,.3,0s.2,0,.3.1c0,0,.1.2.2.2h0s.1,0,.1,0v-.3c-.1-.1-.1-.2,0-.3s.1-.1.2-.2l.9-.3.2.5-1,.3.4,1.2,1-.3.2.5-2.7.9Zm.9-1.5c0-.1,0-.2-.1-.3,0,0-.1-.1-.2-.1,0,0-.2,0-.3,0-.1,0-.2,0-.2.2,0,0,0,.1,0,.2,0,0,0,.2,0,.3l.2.6.8-.3-.2-.6h0Z"/>
      <path class="cls-1" d="m1.3,28.1c-.2,0-.4-.2-.6-.4-.2-.2-.3-.4-.3-.7s0-.5,0-.8c0-.2.2-.4.4-.6.2-.2.4-.3.7-.3.3,0,.5,0,.8,0,.2,0,.4.2.6.4.2.2.3.4.3.7,0,.3,0,.5,0,.8,0,.2-.2.4-.4.6-.2.2-.4.3-.7.3-.3,0-.5,0-.8,0Zm1.1-.7c.1,0,.2-.2.3-.3,0-.1,0-.3,0-.5,0-.2-.1-.3-.2-.4-.1-.1-.2-.2-.4-.2-.2,0-.3,0-.5,0-.2,0-.4,0-.5.2-.1,0-.2.2-.3.3,0,.1,0,.3,0,.5,0,.2.1.3.2.4s.2.2.4.2c.2,0,.3,0,.5,0,.2,0,.4,0,.5-.2Z"/>
      <path class="cls-1" d="m2.9,25.1h-.5s0-.9,0-.9c0-.1,0-.2,0-.3,0,0-.1-.1-.2-.1,0,0-.2,0-.3,0,0,0,0,0,0,0H.5c0,0,0,1.2,0,1.2H0s0-1.3,0-1.3c0-.1,0-.2,0-.3,0,0,.1,0,.2,0h1.6c.3-.1.5,0,.7.1.2.1.3.4.3.7v1.1Z"/>
      <path class="cls-1" d="m0,22.4v-2.1c.1,0,.6,0,.6,0v1.6c-.1,0,.6,0,.6,0v-1.4c0,0,.6,0,.6,0v1.4c0,0,.6,0,.6,0v-1.6c0,0,.6,0,.6,0v2.1c-.1,0-3-.2-3-.2Z"/>
      <path class="cls-1" d="m3,19.6c-.2.2-.4.3-.6.4-.2,0-.5,0-.8,0-.3,0-.5-.2-.7-.3-.2-.2-.3-.4-.4-.6,0-.2,0-.5,0-.8,0-.3.1-.5.3-.6.1-.2.3-.3.5-.4.2,0,.4-.1.6,0v.6c-.3,0-.5,0-.6.2s-.2.3-.3.5c0,.2,0,.3,0,.5,0,.1.1.3.3.3.1,0,.3.2.5.2.2,0,.4,0,.5,0,.2,0,.3-.1.4-.2,0-.1.2-.3.2-.4,0-.2,0-.4,0-.6,0-.2-.2-.3-.4-.3v-.6c.3,0,.5.2.7.3.1.2.2.3.3.5,0,.2,0,.4,0,.7,0,.3-.2.5-.3.7Z"/>
      <polygon class="cls-1" points="4 16.1 3.8 16.6 1.6 15.8 1.3 16.7 .9 16.6 1.6 14.3 2.1 14.4 1.8 15.3 4 16.1"/>
    </g>
  </g>
</svg>