<?xml version="1.0" encoding="UTF-8"?>
<svg id="Layer_2" data-name="Layer 2" xmlns="http://www.w3.org/2000/svg" viewBox="0 0 245.4 52.6">
  <defs>
    <style>
      .cls-1 {
        stroke-width: 0px;
      }
    </style>
  </defs>
  <g id="Layer_1-2" data-name="Layer 1">
    <g>
      <path class="cls-1" d="m12.3,49.2c-3.9-2.3-7-5.4-9.1-9.4-2.1-4-3.2-8.5-3.2-13.5s1.1-9.5,3.2-13.5c2.1-4,5.2-7.1,9.1-9.4,4-2.3,8.6-3.4,13.9-3.4s8.9.8,12.5,2.5c3.6,1.7,6.5,4,8.6,7.1,2.2,3.1,3.5,6.7,4,10.9h-11.9c-.5-3.2-2-5.6-4.3-7.4-2.3-1.8-5.3-2.7-8.8-2.7s-5.5.6-7.7,1.8c-2.2,1.2-3.9,3-5,5.4-1.2,2.4-1.8,5.3-1.8,8.7s.6,6.4,1.8,8.7c1.2,2.4,2.9,4.2,5,5.4,2.2,1.2,4.7,1.8,7.7,1.8s6.5-.9,8.8-2.7c2.3-1.8,3.8-4.3,4.3-7.5h11.9c-.5,4.2-1.8,7.9-4,11-2.2,3.1-5.1,5.5-8.6,7.1-3.6,1.7-7.7,2.5-12.5,2.5s-10-1.1-13.9-3.4Z"/>
      <path class="cls-1" d="m59.7,50.1c-1.1-1.1-1.6-2.5-1.6-4.5V.9h11.6v40.6h24.6v10.2h-30c-2,0-3.5-.5-4.6-1.6Z"/>
      <path class="cls-1" d="m99.4.9h39.1v10.1h-27.5v10.5h23.9v9.5h-23.9v10.6h27.5v10.1h-39.1V.9Z"/>
      <path class="cls-1" d="m182.1.9h-24.8l-14.6,50.8h12.1l4.6-16.3h20.7l4.6,16.3h12.2L182.1.9Zm-20,24.3l6-21.5h3l6,21.5h-15Z"/>
      <path class="cls-1" d="m201.5.9h21.5c4.3,0,8,.4,11.3,1.2,3.2.8,5.8,2.1,7.8,4.1,2,2,3,4.7,3,8.2s-.5,4.6-1.6,6.2c-1.1,1.6-2.4,2.7-4,3.5-1.6.8-3.3,1.3-5.3,1.7h-.5v3h5.5c2,0,3.6.6,4.6,1.8,1.1,1.2,1.6,2.9,1.6,5.1v16.1h-11.5v-17.9h-20.9v17.9h-11.6V.9Zm21.8,22.8c2.5,0,4.4-.1,5.8-.4,1.4-.3,2.5-.9,3.2-1.8.8-.9,1.2-2.3,1.2-4.2s-.4-3.4-1.3-4.3c-.8-.9-2-1.5-3.3-1.7-1.4-.2-3.4-.4-5.9-.4h-9.9v12.7h10.2Z"/>
    </g>
  </g>
</svg>