<?xml version="1.0" encoding="UTF-8"?>
<svg id="Layer_2" data-name="Layer 2" xmlns="http://www.w3.org/2000/svg" viewBox="0 0 367.4 52.6">
  <defs>
    <style>
      .cls-1 {
        stroke-width: 0px;
      }
    </style>
  </defs>
  <g id="Layer_1-2" data-name="Layer 1">
    <path class="cls-1" d="m12.3,49.2c-3.9-2.3-7-5.4-9.1-9.4-2.1-4-3.2-8.5-3.2-13.5s1.1-9.5,3.2-13.5c2.1-4,5.2-7.1,9.1-9.4,4-2.3,8.6-3.4,13.9-3.4s8.9.8,12.5,2.5c3.6,1.7,6.5,4,8.6,7.1,2.2,3.1,3.5,6.7,4,10.9h-11.9c-.5-3.2-2-5.6-4.3-7.4-2.3-1.8-5.3-2.7-8.8-2.7s-5.5.6-7.7,1.8c-2.2,1.2-3.9,3-5,5.4-1.2,2.4-1.8,5.3-1.8,8.7s.6,6.4,1.8,8.7c1.2,2.4,2.9,4.2,5,5.4,2.2,1.2,4.7,1.8,7.7,1.8s6.5-.9,8.8-2.7c2.3-1.8,3.8-4.3,4.3-7.5h11.9c-.5,4.2-1.8,7.9-4,11-2.2,3.1-5.1,5.5-8.6,7.1-3.6,1.7-7.7,2.5-12.5,2.5s-10-1.1-13.9-3.4Z"/>
    <path class="cls-1" d="m59.5,12.8c2.1-4,5.1-7.1,9.1-9.4,3.9-2.3,8.5-3.4,13.8-3.4s9.8,1.1,13.8,3.4c3.9,2.3,6.9,5.4,9,9.4,2.1,4,3.1,8.5,3.1,13.5s-1,9.6-3.1,13.5c-2.1,4-5.1,7.1-9,9.4-3.9,2.3-8.5,3.4-13.8,3.4s-9.9-1.1-13.8-3.4c-3.9-2.3-7-5.4-9.1-9.4-2.1-4-3.2-8.5-3.2-13.5s1.1-9.5,3.2-13.5Zm10.3,22c1.1,2.4,2.7,4.2,4.8,5.5,2.1,1.3,4.7,1.9,7.8,1.9s5.7-.6,7.8-1.9c2.1-1.3,3.6-3.1,4.7-5.5,1-2.4,1.5-5.2,1.5-8.5s-.5-6.2-1.5-8.5c-1-2.4-2.6-4.2-4.7-5.4-2.1-1.2-4.7-1.9-7.8-1.9s-5.7.6-7.8,1.9c-2.1,1.3-3.7,3.1-4.8,5.5-1.1,2.4-1.6,5.2-1.6,8.5s.5,6.2,1.6,8.5Z"/>
    <path class="cls-1" d="m115.3.9h22.8l15.3,47.9h2.9l-2.2-7.2V.9h11.5v50.8h-22.8L127.7,3.8h-3l2.2,7.2v40.7h-11.6V.9Z"/>
    <polygon class="cls-1" points="216.6 .9 216.6 11 200 11 200 51.7 188.5 51.7 188.5 11 171.9 11 171.9 .9 216.6 .9"/>
    <path class="cls-1" d="m252.7.9h-24.8l-14.6,50.8h12.1l4.6-16.3h20.7l4.6,16.3h12.2L252.7.9Zm-20,24.3l6-21.5h3l6,21.5h-15Z"/>
    <path class="cls-1" d="m281.5,49.2c-3.9-2.3-7-5.4-9.1-9.4-2.1-4-3.2-8.5-3.2-13.5s1.1-9.5,3.2-13.5c2.1-4,5.2-7.1,9.1-9.4,4-2.3,8.6-3.4,13.9-3.4s8.9.8,12.5,2.5c3.6,1.7,6.5,4,8.6,7.1,2.2,3.1,3.5,6.7,4,10.9h-11.9c-.5-3.2-2-5.6-4.3-7.4-2.3-1.8-5.3-2.7-8.8-2.7s-5.5.6-7.7,1.8c-2.2,1.2-3.9,3-5,5.4-1.2,2.4-1.8,5.3-1.8,8.7s.6,6.4,1.8,8.7c1.2,2.4,2.9,4.2,5,5.4,2.2,1.2,4.7,1.8,7.7,1.8s6.5-.9,8.8-2.7c2.3-1.8,3.8-4.3,4.3-7.5h11.9c-.5,4.2-1.8,7.9-4,11-2.2,3.1-5.1,5.5-8.6,7.1-3.6,1.7-7.7,2.5-12.5,2.5s-10-1.1-13.9-3.4Z"/>
    <polygon class="cls-1" points="367.4 .9 367.4 11 350.9 11 350.9 51.7 339.3 51.7 339.3 11 322.7 11 322.7 .9 367.4 .9"/>
  </g>
</svg>