<?xml version="1.0" encoding="UTF-8"?>
<svg id="Layer_2" data-name="Layer 2" xmlns="http://www.w3.org/2000/svg" viewBox="0 0 429.1 52.6">
  <defs>
    <style>
      .cls-1 {
        stroke-width: 0px;
      }
    </style>
  </defs>
  <g id="Layer_1-2" data-name="Layer 1">
    <g>
      <path class="cls-1" d="m0,.9h39.1v10.1H11.6v10.5h23.9v9.5H11.6v10.6h27.5v10.1H0V.9Z"/>
      <path class="cls-1" d="m46.9.9h22.8l15.3,47.9h2.9l-2.2-7.2V.9h11.5v50.8h-22.8L59.3,3.8h-3l2.2,7.2v40.7h-11.6V.9Z"/>
      <path class="cls-1" d="m156.3,29.6v22.1h-11.5v-4l2.2-8.6h-3c.1,1.3-.2,3-.9,5.1-.8,2.1-2.3,4-4.7,5.8-2.4,1.7-5.9,2.6-10.4,2.6s-9.3-1.1-12.9-3.2c-3.6-2.1-6.3-5.2-8.2-9.1-1.9-3.9-2.8-8.4-2.8-13.6s1-10.2,3.2-14.2c2.1-4,5.1-7.1,9-9.3,3.9-2.2,8.4-3.2,13.6-3.2s8.3.8,11.9,2.3c3.6,1.6,6.5,3.8,8.8,6.7,2.3,2.9,3.7,6.3,4.3,10h-12c-.5-2.8-1.8-5.1-4.1-6.7-2.3-1.6-5-2.4-8.3-2.4s-5.5.7-7.7,2c-2.2,1.3-3.8,3.2-5,5.8-1.2,2.5-1.7,5.5-1.7,8.9,0,5,1.2,8.9,3.7,11.7s6.2,4.2,11.3,4.2,5.8-.5,8-1.6c2.2-1.1,3.8-2.6,4.7-4.6.6-1.2.9-2.6.9-4.1h-14v-8.8h19.4c2,0,3.6.5,4.6,1.6,1.1,1.1,1.6,2.6,1.6,4.6Z"/>
      <path class="cls-1" d="m201.1.9h-24.8l-14.6,50.8h12.1l4.5-16.3h20.7l4.6,16.3h12.2L201.1.9Zm-20,24.3l6-21.5h2.9l6,21.5h-15Z"/>
      <path class="cls-1" d="m269.7,29.6v22.1h-11.4v-4l2.2-8.6h-3c.1,1.3-.2,3-.9,5.1-.8,2.1-2.3,4-4.7,5.8-2.4,1.7-5.9,2.6-10.4,2.6s-9.3-1.1-12.9-3.2c-3.6-2.1-6.3-5.2-8.2-9.1-1.9-3.9-2.8-8.4-2.8-13.6s1-10.2,3.2-14.2c2.1-4,5.1-7.1,9-9.3,3.9-2.2,8.4-3.2,13.6-3.2s8.3.8,11.9,2.3,6.5,3.8,8.8,6.7c2.3,2.9,3.7,6.3,4.3,10h-11.9c-.5-2.8-1.9-5.1-4.1-6.7-2.3-1.6-5-2.4-8.3-2.4s-5.5.7-7.7,2c-2.2,1.3-3.8,3.2-5,5.8-1.2,2.5-1.7,5.5-1.7,8.9,0,5,1.2,8.9,3.7,11.7,2.5,2.8,6.2,4.2,11.3,4.2s5.8-.5,8-1.6c2.2-1.1,3.8-2.6,4.7-4.6.6-1.2.9-2.6.9-4.1h-14v-8.8h19.4c2,0,3.6.5,4.6,1.6s1.6,2.6,1.6,4.6Z"/>
      <polygon class="cls-1" points="300.1 11 300.1 41.5 311.5 41.5 311.5 51.7 277.1 51.7 277.1 41.5 288.5 41.5 288.5 11 277.1 11 277.1 .9 311.5 .9 311.5 11 300.1 11"/>
      <path class="cls-1" d="m319.7.9h22.8l15.3,47.9h2.9l-2.2-7.2V.9h11.5v50.8h-22.8l-15.2-47.9h-3l2.2,7.2v40.7h-11.6V.9Z"/>
      <path class="cls-1" d="m429.1,29.6v22.1h-11.5v-4l2.2-8.6h-3c.2,1.3-.1,3-.9,5.1-.7,2.1-2.3,4-4.7,5.8-2.4,1.7-5.9,2.6-10.4,2.6s-9.3-1.1-12.9-3.2c-3.6-2.1-6.3-5.2-8.2-9.1-1.9-3.9-2.8-8.4-2.8-13.6s1.1-10.2,3.2-14.2c2.1-4,5.1-7.1,9-9.3,3.9-2.2,8.4-3.2,13.6-3.2s8.3.8,11.9,2.3c3.6,1.6,6.5,3.8,8.8,6.7,2.3,2.9,3.7,6.3,4.3,10h-12c-.5-2.8-1.8-5.1-4.1-6.7-2.2-1.6-5-2.4-8.3-2.4s-5.5.7-7.7,2c-2.2,1.3-3.8,3.2-5,5.8s-1.7,5.5-1.7,8.9c0,5,1.2,8.9,3.7,11.7,2.5,2.8,6.2,4.2,11.3,4.2s5.8-.5,8-1.6c2.2-1.1,3.8-2.6,4.7-4.6.6-1.2.9-2.6.9-4.1h-14v-8.8h19.4c2,0,3.6.5,4.6,1.6,1.1,1.1,1.6,2.6,1.6,4.6Z"/>
    </g>
  </g>
</svg>