<?xml version="1.0" encoding="UTF-8"?>
<svg id="Layer_2" data-name="Layer 2" xmlns="http://www.w3.org/2000/svg" viewBox="0 0 290.9 29.2">
  <defs>
    <style>
      .cls-1 {
        fill: #231f20;
        stroke-width: 0px;
      }
    </style>
  </defs>
  <g id="Layer_1-2" data-name="Layer 1">
    <path class="cls-1" d="m0,.5h21.7v5.6H6.4v5.8h13.3v5.3H6.4v5.9h15.3v5.6H0V.5Z"/>
    <path class="cls-1" d="m26.1.5h12.6l8.5,26.6h1.6l-1.2-4V.5h6.4v28.2h-12.6L32.9,2.1h-1.6l1.2,4v22.6h-6.4V.5Z"/>
    <polygon class="cls-1" points="82.3 .5 82.3 6.1 73.1 6.1 73.1 28.7 66.7 28.7 66.7 6.1 57.5 6.1 57.5 .5 82.3 .5"/>
    <polygon class="cls-1" points="111.9 .5 111.9 28.7 105.4 28.7 105.4 17.8 92.2 17.8 92.2 28.7 85.8 28.7 85.8 .5 92.2 .5 92.2 12.2 105.4 12.2 105.4 .5 111.9 .5"/>
    <path class="cls-1" d="m116.6.5h6.4v14.9c0,.4,0,.7,0,1,0,1.7.2,3.1.5,4.1.3,1,.9,1.8,1.8,2.3.9.5,2.2.8,4,.8s3.1-.3,4.1-.8c.9-.5,1.5-1.3,1.8-2.3.3-1,.4-2.4.4-4.2,0-.2,0-.5,0-.8V.5h6.4v17.7c0,3.6-1.1,6.3-3.3,8.2-2.2,1.9-5.4,2.8-9.5,2.8s-5.1-.4-7-1.3c-1.9-.8-3.3-2.1-4.3-3.7-1-1.6-1.5-3.6-1.5-6V.5Z"/>
    <path class="cls-1" d="m168.4,27c-2,1.5-5.1,2.3-9.3,2.3s-8.2-1-10.5-2.9c-2.3-1.9-3.4-4.8-3.4-8.5h6.6c0,1.4.2,2.6.7,3.5.5.9,1.2,1.5,2.3,1.9,1.1.4,2.5.6,4.4.6s3.4-.2,4.2-.7c.9-.5,1.3-1.2,1.3-2.3s-.2-1.2-.7-1.7c-.5-.5-1.2-.8-2.2-1.1l-9.1-2.4c-2.2-.6-3.9-1.6-4.9-2.8-1-1.3-1.5-2.8-1.5-4.7s1-4.7,2.9-6.1c1.9-1.4,4.7-2.1,8.3-2.1s5.2.4,7.1,1.2c1.9.8,3.4,2,4.3,3.5,1,1.5,1.4,3.3,1.4,5.4h-6.6c0-1.7-.5-2.9-1.5-3.7-1-.8-2.6-1.2-4.6-1.2s-2.7.2-3.4.7c-.8.4-1.2,1.1-1.2,2.1s.2,1.1.6,1.5c.4.4,1.1.7,2.1,1l8.9,2.2c2.3.6,4,1.5,5.1,2.9,1.1,1.3,1.7,3,1.7,5s-1,4.9-3,6.4Z"/>
    <polygon class="cls-1" points="186.8 6.1 186.8 23.1 193.2 23.1 193.2 28.7 174 28.7 174 23.1 180.4 23.1 180.4 6.1 174 6.1 174 .5 193.2 .5 193.2 6.1 186.8 6.1"/>
    <path class="cls-1" d="m217.4.5h-13.8l-8.1,28.2h6.7l2.5-9h11.5l2.5,9h6.8L217.4.5Zm-11.1,13.5l3.3-11.9h1.6l3.3,11.9h-8.3Z"/>
    <path class="cls-1" d="m249.9,27c-2,1.5-5.1,2.3-9.3,2.3s-8.2-1-10.5-2.9c-2.3-1.9-3.4-4.8-3.4-8.5h6.6c0,1.4.2,2.6.7,3.5.5.9,1.2,1.5,2.3,1.9,1.1.4,2.5.6,4.4.6s3.4-.2,4.2-.7c.9-.5,1.3-1.2,1.3-2.3s-.2-1.2-.7-1.7-1.2-.8-2.2-1.1l-9.1-2.4c-2.2-.6-3.9-1.6-4.9-2.8-1-1.3-1.5-2.8-1.5-4.7s1-4.7,2.9-6.1c1.9-1.4,4.7-2.1,8.3-2.1s5.2.4,7.1,1.2,3.4,2,4.3,3.5c1,1.5,1.4,3.3,1.4,5.4h-6.6c0-1.7-.5-2.9-1.5-3.7-1-.8-2.6-1.2-4.6-1.2s-2.7.2-3.4.7c-.8.4-1.2,1.1-1.2,2.1s.2,1.1.6,1.5c.4.4,1.1.7,2.1,1l8.9,2.2c2.3.6,4,1.5,5.1,2.9,1.1,1.3,1.7,3,1.7,5s-1,4.9-3,6.4Z"/>
    <path class="cls-1" d="m256.5.5h12.7l3.8,26.6h1.6l3.8-26.6h12.6v28.2h-6.4V9.7l1.2-7.6h-1.6l-4.2,26.6h-12.5l-4.1-26.6h-1.6l1.2,7.6v19h-6.4V.5Z"/>
  </g>
</svg>