<?xml version="1.0" encoding="UTF-8"?>
<svg id="Layer_2" data-name="Layer 2" xmlns="http://www.w3.org/2000/svg" viewBox="0 0 505.2 29.2">
  <defs>
    <style>
      .cls-1 {
        stroke-width: 0px;
      }
    </style>
  </defs>
  <g id="Layer_1-2" data-name="Layer 1">
    <path class="cls-1" d="m0,.5h20.4v5.6H6.4v7.4h13v5.4H6.4v9.8H0V.5Z"/>
    <path class="cls-1" d="m24.7.5h12c2.4,0,4.5.2,6.3.6,1.8.4,3.2,1.2,4.3,2.3,1.1,1.1,1.6,2.6,1.6,4.6s-.3,2.6-.9,3.4-1.3,1.5-2.2,1.9c-.9.4-1.9.7-2.9.9h-.3v1.6h3c1.1,0,2,.3,2.6,1s.9,1.6.9,2.8v8.9h-6.4v-9.9h-11.6v9.9h-6.4V.5Zm12.1,12.7c1.4,0,2.5,0,3.2-.2.8-.2,1.4-.5,1.8-1,.4-.5.6-1.3.6-2.3s-.2-1.9-.7-2.4c-.5-.5-1.1-.8-1.9-.9-.8-.1-1.9-.2-3.3-.2h-5.5v7.1h5.7Z"/>
    <path class="cls-1" d="m54.2,7.1c1.2-2.2,2.9-4,5-5.2,2.2-1.3,4.7-1.9,7.7-1.9s5.5.6,7.6,1.9c2.2,1.3,3.9,3,5,5.2,1.2,2.2,1.7,4.7,1.7,7.5s-.6,5.3-1.7,7.5c-1.2,2.2-2.8,4-5,5.2-2.2,1.3-4.7,1.9-7.6,1.9s-5.5-.6-7.7-1.9c-2.2-1.3-3.9-3-5-5.2-1.2-2.2-1.8-4.7-1.8-7.5s.6-5.3,1.8-7.5Zm5.7,12.2c.6,1.3,1.5,2.3,2.7,3,1.2.7,2.6,1.1,4.3,1.1s3.2-.4,4.3-1.1c1.2-.7,2-1.7,2.6-3,.6-1.3.9-2.9.9-4.7s-.3-3.4-.9-4.7c-.6-1.3-1.4-2.3-2.6-3-1.2-.7-2.6-1-4.3-1s-3.2.4-4.3,1.1-2,1.7-2.6,3c-.6,1.3-.9,2.9-.9,4.7s.3,3.4.9,4.7Z"/>
    <path class="cls-1" d="m85.3.5h12.6l8.5,26.6h1.6l-1.2-4V.5h6.4v28.2h-12.6l-8.4-26.6h-1.6l1.2,4v22.6h-6.4V.5Z"/>
    <polygon class="cls-1" points="141.6 .5 141.6 6.1 132.4 6.1 132.4 28.7 126 28.7 126 6.1 116.7 6.1 116.7 .5 141.6 .5"/>
    <path class="cls-1" d="m158,12.3v4.6h-21.4v-4.6h21.4Z"/>
    <path class="cls-1" d="m161.6.5h21.7v5.6h-15.3v5.8h13.3v5.3h-13.3v5.9h15.3v5.6h-21.7V.5Z"/>
    <path class="cls-1" d="m187.8.5h12.6l8.5,26.6h1.6l-1.2-4V.5h6.4v28.2h-12.6l-8.4-26.6h-1.6l1.2,4v22.6h-6.4V.5Z"/>
    <path class="cls-1" d="m244.2,5.8c-1.4-2.1-3.3-3.5-5.5-4.2-2.2-.7-4.8-1.1-7.7-1.1h-10.4v28.2h10.4c2.9,0,5.5-.4,7.7-1.1,2.2-.7,4.1-2.1,5.5-4.2s2.2-5,2.2-8.8-.7-6.7-2.2-8.8Zm-5.4,14.5c-.8,1.2-1.7,2-2.9,2.3-1.2.3-2.8.5-4.9.5h-3.9V6.1h3.9c2.1,0,3.7.2,4.9.5,1.2.3,2.2,1.1,2.9,2.3.8,1.2,1.2,3.1,1.2,5.7s-.4,4.5-1.1,5.7Z"/>
    <path class="cls-1" d="m285.3,5.8c-1.4-2.1-3.3-3.5-5.5-4.2-2.2-.7-4.8-1.1-7.7-1.1h-10.4v28.2h10.4c2.9,0,5.5-.4,7.7-1.1,2.2-.7,4.1-2.1,5.5-4.2s2.2-5,2.2-8.8-.7-6.7-2.2-8.8Zm-5.4,14.5c-.8,1.2-1.7,2-2.9,2.3-1.2.3-2.8.5-4.9.5h-3.9V6.1h3.9c2,0,3.7.2,4.9.5,1.2.3,2.2,1.1,2.9,2.3.8,1.2,1.2,3.1,1.2,5.7s-.4,4.5-1.1,5.7Z"/>
    <path class="cls-1" d="m291.4.5h21.7v5.6h-15.3v5.8h13.3v5.3h-13.3v5.9h15.3v5.6h-21.7V.5Z"/>
    <path class="cls-1" d="m315.5.5h6.8l7.5,26.6h1.6l7.5-26.6h6.7l-8.2,28.2h-13.8l-8.1-28.2Z"/>
    <path class="cls-1" d="m348.4.5h21.7v5.6h-15.3v5.8h13.3v5.3h-13.3v5.9h15.3v5.6h-21.7V.5Z"/>
    <path class="cls-1" d="m375.4,27.8c-.6-.6-.9-1.4-.9-2.5V.5h6.4v22.6h13.7v5.6h-16.7c-1.1,0-1.9-.3-2.5-.9Z"/>
    <path class="cls-1" d="m397.1,7.1c1.2-2.2,2.9-4,5-5.2,2.2-1.3,4.7-1.9,7.7-1.9s5.5.6,7.6,1.9,3.9,3,5,5.2c1.2,2.2,1.7,4.7,1.7,7.5s-.6,5.3-1.7,7.5c-1.2,2.2-2.8,4-5,5.2s-4.7,1.9-7.6,1.9-5.5-.6-7.7-1.9c-2.2-1.3-3.9-3-5-5.2-1.2-2.2-1.8-4.7-1.8-7.5s.6-5.3,1.8-7.5Zm5.7,12.2c.6,1.3,1.5,2.3,2.7,3s2.6,1.1,4.3,1.1,3.2-.4,4.3-1.1,2-1.7,2.6-3c.6-1.3.9-2.9.9-4.7s-.3-3.4-.9-4.7c-.6-1.3-1.4-2.3-2.6-3-1.2-.7-2.6-1-4.3-1s-3.2.4-4.3,1.1-2,1.7-2.6,3c-.6,1.3-.9,2.9-.9,4.7s.3,3.4.9,4.7Z"/>
    <path class="cls-1" d="m449.8,4.7c-.9-1.5-2.3-2.5-4.1-3.2-1.9-.7-4.2-1-7.1-1h-10.4v28.2h6.4v-8.1h4c4.3,0,7.5-.8,9.5-2.3,2-1.6,3-4.1,3-7.7s-.5-4.3-1.3-5.8Zm-5.7,8.5c-.4.7-1.1,1.1-1.9,1.4-.8.3-1.9.4-3.3.4h-4.3V6.1h4.3c1.4,0,2.5.1,3.3.4.8.3,1.4.7,1.9,1.3.4.6.6,1.5.6,2.7s-.2,2-.6,2.7Z"/>
    <path class="cls-1" d="m454.6.5h21.7v5.6h-15.3v5.8h13.3v5.3h-13.3v5.9h15.3v5.6h-21.7V.5Z"/>
    <path class="cls-1" d="m480.8.5h12c2.4,0,4.5.2,6.3.6,1.8.4,3.2,1.2,4.3,2.3,1.1,1.1,1.6,2.6,1.6,4.6s-.3,2.6-.9,3.4-1.3,1.5-2.2,1.9c-.9.4-1.9.7-2.9.9h-.3v1.6h3c1.1,0,2,.3,2.6,1,.6.7.9,1.6.9,2.8v8.9h-6.4v-9.9h-11.6v9.9h-6.4V.5Zm12.1,12.7c1.4,0,2.5,0,3.2-.2.8-.2,1.4-.5,1.8-1,.4-.5.6-1.3.6-2.3s-.2-1.9-.7-2.4c-.5-.5-1.1-.8-1.9-.9-.8-.1-1.9-.2-3.3-.2h-5.5v7.1h5.7Z"/>
  </g>
</svg>