<?xml version="1.0" encoding="UTF-8"?>
<svg id="Layer_2" data-name="Layer 2" xmlns="http://www.w3.org/2000/svg" viewBox="0 0 498 52.6">
  <defs>
    <style>
      .cls-1 {
        stroke-width: 0px;
      }
    </style>
  </defs>
  <g id="Layer_1-2" data-name="Layer 1">
    <polygon class="cls-1" points="23 11 23 41.5 34.5 41.5 34.5 51.7 0 51.7 0 41.5 11.5 41.5 11.5 11 0 11 0 .9 34.5 .9 34.5 11 23 11"/>
    <path class="cls-1" d="m42.7.9h22.8l15.3,47.9h2.9l-2.2-7.2V.9h11.5v50.8h-22.8L55,3.8h-3l2.2,7.2v40.7h-11.6V.9Z"/>
    <path class="cls-1" d="m101.7.9h22.8l15.3,47.9h2.9l-2.2-7.2V.9h11.5v50.8h-22.8L114,3.8h-3l2.2,7.2v40.7h-11.6V.9Z"/>
    <path class="cls-1" d="m162.1,12.8c2.1-4,5.1-7.1,9.1-9.4,3.9-2.3,8.5-3.4,13.8-3.4s9.8,1.1,13.8,3.4c3.9,2.3,6.9,5.4,9,9.4,2.1,4,3.1,8.5,3.1,13.5s-1,9.6-3.1,13.5c-2.1,4-5.1,7.1-9,9.4-3.9,2.3-8.5,3.4-13.8,3.4s-9.9-1.1-13.8-3.4c-3.9-2.3-7-5.4-9.1-9.4-2.1-4-3.2-8.5-3.2-13.5s1.1-9.5,3.2-13.5Zm10.3,22c1.1,2.4,2.7,4.2,4.8,5.5,2.1,1.3,4.7,1.9,7.8,1.9s5.7-.6,7.8-1.9c2.1-1.3,3.6-3.1,4.7-5.5,1-2.4,1.5-5.2,1.5-8.5s-.5-6.2-1.5-8.5c-1-2.4-2.6-4.2-4.7-5.4-2.1-1.2-4.7-1.9-7.8-1.9s-5.7.6-7.8,1.9c-2.1,1.3-3.7,3.1-4.8,5.5s-1.6,5.2-1.6,8.5.5,6.2,1.6,8.5Z"/>
    <path class="cls-1" d="m209.9.9h12.2l13.5,47.9h2.9L251.9.9h12.1l-14.7,50.8h-24.8L209.9.9Z"/>
    <path class="cls-1" d="m299.2.9h-24.8l-14.6,50.8h12.1l4.5-16.3h20.7l4.6,16.3h12.2L299.2.9Zm-20,24.3l6-21.5h3l6,21.5h-15Z"/>
    <polygon class="cls-1" points="355.2 .9 355.2 11 338.7 11 338.7 51.7 327.2 51.7 327.2 11 310.5 11 310.5 .9 355.2 .9"/>
    <polygon class="cls-1" points="383.8 11 383.8 41.5 395.3 41.5 395.3 51.7 360.8 51.7 360.8 41.5 372.2 41.5 372.2 11 360.8 11 360.8 .9 395.3 .9 395.3 11 383.8 11"/>
    <path class="cls-1" d="m399.7.9h12.2l13.5,47.9h2.9L441.8.9h12.1l-14.7,50.8h-24.8L399.7.9Z"/>
    <path class="cls-1" d="m458.9.9h39.1v10.1h-27.5v10.5h23.9v9.5h-23.9v10.6h27.5v10.1h-39.1V.9Z"/>
  </g>
</svg>