<?xml version="1.0" encoding="UTF-8"?>
<svg id="Layer_2" data-name="Layer 2" xmlns="http://www.w3.org/2000/svg" viewBox="0 0 224.2 51.3">
  <defs>
    <style>
      .cls-1 {
        stroke-width: 0px;
      }
    </style>
  </defs>
  <g id="Layer_1-2" data-name="Layer 1">
    <polygon class="cls-1" points="47.2 50.3 31.2 50.3 15.2 29.8 12.7 29.8 12.7 50.3 0 50.3 0 1 12.7 1 12.7 19.9 15.4 19.9 31.4 1 46.8 1 26.4 24.6 47.2 50.3"/>
    <path class="cls-1" d="m48,12.5c2.1-3.9,5.1-7,9-9.2,3.9-2.2,8.5-3.3,13.8-3.3s9.8,1.1,13.7,3.3c3.9,2.2,6.9,5.3,9,9.2,2.1,3.9,3.1,8.3,3.1,13.1s-1,9.3-3.1,13.2c-2.1,3.9-5.1,7-9,9.2-3.9,2.2-8.5,3.3-13.7,3.3s-9.9-1.1-13.8-3.3c-3.9-2.2-6.9-5.3-9-9.2-2.1-3.9-3.2-8.3-3.2-13.2s1.1-9.2,3.2-13.1Zm11.5,20.8c1,2.1,2.4,3.7,4.2,4.8,1.9,1.1,4.2,1.7,7.1,1.7s5.2-.6,7.1-1.7c1.9-1.1,3.3-2.7,4.3-4.8.9-2.1,1.4-4.6,1.4-7.7s-.5-5.6-1.5-7.7c-1-2.1-2.4-3.7-4.3-4.8-1.9-1.1-4.2-1.7-7-1.7s-5.2.6-7.1,1.7c-1.9,1.1-3.3,2.8-4.2,4.8-.9,2.1-1.4,4.6-1.4,7.6s.5,5.6,1.4,7.7Z"/>
    <path class="cls-1" d="m102.8,1h25.1l4.6,46.2h3.2L140.3,1h24.9v49.4h-12.7v-30.7l2.4-15.5h-3.1l-5.6,46.2h-24.6l-5.5-46.2h-3.2l2.5,15.5v30.7h-12.7V1Z"/>
    <path class="cls-1" d="m210.5,1h-27.4l-13.7,49.3h13.3l4-14.9h20l4,14.9h13.5L210.5,1Zm-20.8,23.4l5.4-20.2h3.2l5.4,20.2h-14.1Z"/>
  </g>
</svg>