<?xml version="1.0" encoding="UTF-8"?>
<svg id="Layer_2" data-name="Layer 2" xmlns="http://www.w3.org/2000/svg" viewBox="0 0 122.55 28.66">
  <defs>
    <style>
      .cls-1 {
        fill: #1e1b1a;
      }
    </style>
  </defs>
  <g id="Layer_1-2" data-name="Layer 1">
    <path class="cls-1" d="m16.21,14.42c8.31-2.27,11.07-7.6,11.7-13.04.11-.91-.1-1.2-1.1-1.2C18.26.22,9.71.22,1.17.18.2.17,0,.46,0,1.38,0,3.61,0,7.01,0,14.42S0,25.23,0,27.46c0,.91.2,1.2,1.17,1.2,8.55-.04,17.09-.04,25.64,0,1,0,1.21-.29,1.1-1.2-.63-5.44-3.39-10.77-11.7-13.04Z"/>
    <path class="cls-1" d="m76.03,11.8C73.74,3.43,68.38.66,62.9.03c-.92-.11-1.21.1-1.21,1.11.04,8.6.04,17.2,0,25.8,0,.97.29,1.18,1.21,1.17,2.25,0,5.67,0,13.12,0s10.88,0,13.12,0c.92,0,1.21-.2,1.21-1.17-.04-8.6-.04-17.2,0-25.8,0-1-.29-1.21-1.21-1.11-5.48.64-10.84,3.41-13.12,11.77Z"/>
    <circle class="cls-1" cx="43.96" cy="14.33" r="14.33"/>
    <path class="cls-1" d="m122.55,12.78C122.55,8.14,118.16.03,108.15.03s-14.39,8.11-14.39,12.76c-.02,4.32.06,9.8,0,14.11-.01.97.31,1.07,1.14,1.06,4.32-.04,8.94,0,13.26,0s8.94-.04,13.26,0c.83,0,1.15-.09,1.14-1.06-.06-4.32.02-9.8,0-14.11Z"/>
  </g>
</svg>