<?xml version="1.0" encoding="utf-8"?>
<!-- Generator: Adobe Illustrator 27.6.1, SVG Export Plug-In . SVG Version: 6.00 Build 0)  -->
<svg version="1.1" id="Layer_1" xmlns="http://www.w3.org/2000/svg" xmlns:xlink="http://www.w3.org/1999/xlink" x="0px" y="0px"
	 viewBox="0 0 311 311" style="enable-background:new 0 0 311 311;" xml:space="preserve">
<style type="text/css">
	.st0{fill:#00A267;}
</style>
<path class="st0" d="M154,130.6c5.7-12.5,8.3-25.2,13.9-37c25.9-55.2,69-86.3,129.5-93.3c10.1-1.2,13.6,1.1,13.5,12.2
	c-0.4,95.2-0.4,190.2,0,285.4c0,10.8-3.1,13-13.4,13c-95.1-0.3-190.2-0.4-285.3,0C2.2,311,0,308.3,0,298.4
	c0.3-95.6,0.3-191.1,0-286.7C0,2.6,1.9-1,11.7,0.2c64.5,7.7,109.9,40.5,134.4,101.2c2,4.9,2.7,10.2,4.1,15.4
	c1.2,4.6,2.6,9.1,3.9,13.8H154z"/>
</svg>
