<?xml version="1.0" encoding="UTF-8"?>
<svg id="Layer_2" data-name="Layer 2" xmlns="http://www.w3.org/2000/svg" viewBox="0 0 573.7 50">
  <defs>
    <style>
      .cls-1 {
        fill: #222;
      }
    </style>
  </defs>
  <g id="Layer_1-2" data-name="Layer 1">
    <path class="cls-1" d="m424,1c-12.4-.3-24.3,9.8-24.3,23.8s10.3,24.2,23.9,24.2c13.3,0,24-10.6,24.2-23.8.2-13.8-11.4-24.4-23.8-24.2Z"/>
    <path class="cls-1" d="m18.9,50c-3.7,0-7-.7-9.8-2-2.8-1.3-5.1-3.2-6.7-5.7-1.6-2.5-2.4-5.4-2.4-8.9v-1.9h8.9v1.9c0,2.9.9,5,2.7,6.5,1.8,1.4,4.2,2.2,7.3,2.2s5.4-.6,7-1.9c1.5-1.2,2.3-2.8,2.3-4.7s-.4-2.4-1.1-3.2c-.8-.8-1.9-1.5-3.3-2-1.4-.5-3.2-1-5.3-1.5l-1.6-.3c-3.3-.7-6.1-1.7-8.5-2.8-2.4-1.1-4.2-2.6-5.4-4.4-1.3-1.8-1.9-4.2-1.9-7.1s.7-5.4,2.1-7.5c1.4-2.1,3.4-3.7,5.9-4.8,2.5-1.1,5.5-1.7,9-1.7s6.5.6,9.2,1.8c2.7,1.2,4.8,2.9,6.3,5.2,1.5,2.3,2.3,5.2,2.3,8.7v2.1h-8.9v-2.1c0-1.8-.4-3.3-1.1-4.4-.7-1.1-1.7-1.9-3.1-2.5-1.3-.5-2.9-.8-4.7-.8-2.7,0-4.8.5-6.1,1.5-1.3,1-2,2.4-2,4.2s.3,2.2.9,3c.6.8,1.5,1.5,2.8,2.1,1.2.5,2.8,1,4.7,1.4l1.6.3c3.4.7,6.4,1.7,9,2.8,2.5,1.1,4.5,2.7,5.9,4.5,1.4,1.9,2.1,4.3,2.1,7.2s-.7,5.5-2.2,7.7c-1.5,2.2-3.6,4-6.3,5.2-2.7,1.3-5.9,1.9-9.7,1.9Z"/>
    <path class="cls-1" d="m43.8,49V1h30.9v8.2h-21.8v11.5h19.9v8.2h-19.9v11.9h22.3v8.2h-31.3Z"/>
    <path class="cls-1" d="m81.9,49V1h9.1v39.8h22v8.2h-31Z"/>
    <path class="cls-1" d="m119.1,49V1h30.9v8.2h-21.8v11.5h19.9v8.2h-19.9v11.9h22.3v8.2h-31.3Z"/>
    <path class="cls-1" d="m175.4,50c-6,0-10.7-1.7-14.2-5-3.5-3.3-5.2-8.1-5.2-14.3v-11.5c0-6.2,1.7-10.9,5.2-14.3,3.5-3.3,8.2-5,14.2-5s10.5,1.6,13.7,4.8c3.2,3.2,4.8,7.7,4.8,13.3v.4h-8.9v-.7c0-2.8-.8-5.2-2.4-7-1.6-1.8-4-2.7-7.2-2.7s-5.7,1-7.6,3c-1.8,2-2.7,4.6-2.7,8v11.8c0,3.3.9,6,2.7,8,1.8,2,4.4,3,7.6,3s5.7-.9,7.2-2.8c1.6-1.9,2.4-4.2,2.4-7v-1.2h8.9v1c0,5.6-1.6,10.1-4.8,13.3-3.2,3.2-7.8,4.8-13.7,4.8Z"/>
    <path class="cls-1" d="m211.6,49V9.2h-14V1h37.1v8.2h-14v39.8h-9.1Z"/>
    <path class="cls-1" d="m240.8,49V1h30.9v8.2h-21.8v11.5h19.9v8.2h-19.9v11.9h22.3v8.2h-31.3Z"/>
    <path class="cls-1" d="m277.5,49v-8h6.3V8.9h-6.3V1h19.8c6.5,0,11.4,1.6,14.7,4.9,3.4,3.3,5,8.1,5,14.6v9.1c0,6.5-1.7,11.3-5,14.6-3.4,3.3-8.3,4.9-14.7,4.9h-19.8Zm15.4-8.2h4.5c3.7,0,6.3-1,8-2.9,1.7-1.9,2.5-4.6,2.5-8.1v-9.6c0-3.5-.8-6.2-2.5-8.1-1.7-1.9-4.4-2.9-8-2.9h-4.5v31.6Z"/>
    <path class="cls-1" d="m345.5,49l-6.3-48.1h9l4.7,41.8h1.2l6-41.8h15.7l6,41.8h1.2l4.7-41.8h9l-6.3,48.1h-15.7l-6.2-42.7h-1.2l-6.2,42.7h-15.7Z"/>
    <path class="cls-1" d="m452.9,49V1h20.9c3,0,5.7.5,7.9,1.6,2.2,1.1,4,2.5,5.2,4.5,1.2,1.9,1.9,4.2,1.9,6.8v.8c0,2.9-.7,5.2-2.1,7-1.4,1.8-3.1,3.1-5.1,3.9v1.2c1.8,0,3.3.7,4.3,1.9,1,1.2,1.5,2.7,1.5,4.6v15.7h-9.1v-14.4c0-1.1-.3-2-.9-2.7-.6-.7-1.5-1-2.9-1h-12.6v18.1h-9.1Zm9.1-26.4h10.9c2.2,0,3.8-.6,5-1.8,1.2-1.2,1.8-2.7,1.8-4.6v-.7c0-1.9-.6-3.5-1.8-4.6-1.2-1.2-2.9-1.8-5.1-1.8h-10.9v13.5Z"/>
    <path class="cls-1" d="m496.3,49V1h9.1v19.1h1.2l15.6-19.1h11.6l-20.1,23.7,20.7,24.4h-12l-15.9-19.5h-1.2v19.5h-9.1Z"/>
    <path class="cls-1" d="m555.5,50c-3.7,0-7-.7-9.8-2-2.8-1.3-5.1-3.2-6.7-5.7-1.6-2.5-2.4-5.4-2.4-8.9v-1.9h8.9v1.9c0,2.9.9,5,2.7,6.5,1.8,1.4,4.2,2.2,7.3,2.2s5.4-.6,7-1.9,2.3-2.8,2.3-4.7-.4-2.4-1.1-3.2c-.8-.8-1.9-1.5-3.3-2-1.4-.5-3.2-1-5.3-1.5l-1.6-.3c-3.3-.7-6.1-1.7-8.5-2.8-2.4-1.1-4.2-2.6-5.4-4.4-1.3-1.8-1.9-4.2-1.9-7.1s.7-5.4,2.1-7.5c1.4-2.1,3.4-3.7,5.9-4.8,2.5-1.1,5.5-1.7,9-1.7s6.5.6,9.2,1.8c2.7,1.2,4.8,2.9,6.3,5.2,1.5,2.3,2.3,5.2,2.3,8.7v2.1h-8.9v-2.1c0-1.8-.4-3.3-1.1-4.4-.7-1.1-1.7-1.9-3.1-2.5-1.3-.5-2.9-.8-4.7-.8-2.7,0-4.8.5-6.1,1.5s-2,2.4-2,4.2.3,2.2.9,3c.6.8,1.5,1.5,2.8,2.1,1.2.5,2.8,1,4.7,1.4l1.6.3c3.4.7,6.4,1.7,9,2.8,2.5,1.1,4.5,2.7,5.9,4.5,1.4,1.9,2.1,4.3,2.1,7.2s-.7,5.5-2.2,7.7c-1.5,2.2-3.6,4-6.3,5.2-2.7,1.3-5.9,1.9-9.7,1.9Z"/>
  </g>
</svg>