<?xml version="1.0" encoding="UTF-8"?>
<svg id="Layer_2" data-name="Layer 2" xmlns="http://www.w3.org/2000/svg" viewBox="0 0 635.5 52.6">
  <g id="Layer_1-2" data-name="Layer 1">
    <path d="m0,.9h22.8l6.8,47.9h3L39.4.9h22.6v50.8h-11.5V17.4l2.1-13.6h-2.8l-7.6,47.9h-22.5L12.3,3.8h-3l2.2,13.6v34.3H0V.9Z"/>
    <path d="m70.8.9h39.1v10.1h-27.5v10.5h23.9v9.5h-23.9v10.6h27.5v10.1h-39.1V.9Z"/>
    <path d="m160.2,10.4c-2.6-3.7-5.9-6.3-9.9-7.6-4-1.3-8.7-1.9-13.9-1.9h-18.6v50.8h18.6c5.2,0,9.9-.7,13.9-1.9,4-1.3,7.3-3.8,9.9-7.6,2.6-3.8,3.9-9,3.9-15.9s-1.3-12.1-3.9-15.8Zm-9.8,26.1c-1.4,2.2-3.1,3.6-5.3,4.1-2.1.5-5.1.8-8.8.8h-7.1V11h7.1c3.7,0,6.6.3,8.8.9,2.1.6,3.9,2,5.3,4.1,1.4,2.2,2.1,5.6,2.1,10.3s-.7,8.1-2,10.3Z"/>
    <polygon points="188.9 11 188.9 41.5 200.4 41.5 200.4 51.7 165.9 51.7 165.9 41.5 177.3 41.5 177.3 11 165.9 11 165.9 .9 200.4 .9 200.4 11 188.9 11"/>
    <path d="m243.9.9h-24.8l-14.6,50.8h12.1l4.5-16.3h20.7l4.6,16.3h12.2L243.9.9Zm-20,24.3l6-21.5h3l6,21.5h-15Z"/>
    <path d="m294.6,49.2c-3.9-2.3-7-5.4-9.1-9.4-2.1-4-3.2-8.5-3.2-13.5s1.1-9.5,3.2-13.5c2.1-4,5.2-7.1,9.1-9.4,4-2.3,8.6-3.4,13.9-3.4s8.9.8,12.5,2.5c3.6,1.7,6.5,4,8.6,7.1,2.2,3.1,3.5,6.7,4,10.9h-11.9c-.5-3.2-2-5.6-4.3-7.4-2.3-1.8-5.3-2.7-8.8-2.7s-5.5.6-7.7,1.8c-2.2,1.2-3.9,3-5,5.4-1.2,2.4-1.8,5.3-1.8,8.7s.6,6.4,1.8,8.7c1.2,2.4,2.9,4.2,5,5.4,2.2,1.2,4.7,1.8,7.7,1.8s6.5-.9,8.8-2.7c2.3-1.8,3.8-4.3,4.3-7.5h11.9c-.5,4.2-1.8,7.9-4,11-2.2,3.1-5.1,5.5-8.6,7.1-3.6,1.7-7.7,2.5-12.5,2.5s-10-1.1-13.9-3.4Z"/>
    <path d="m340.4.9h21.5c4.3,0,8,.4,11.3,1.2,3.2.8,5.8,2.1,7.8,4.1,2,2,3,4.7,3,8.2s-.5,4.6-1.6,6.2c-1.1,1.6-2.4,2.7-4,3.5-1.6.8-3.3,1.3-5.3,1.7h-.5v3h5.5c2,0,3.6.6,4.6,1.8,1.1,1.2,1.6,2.9,1.6,5.1v16.1h-11.5v-17.9h-20.9v17.9h-11.6V.9Zm21.8,22.8c2.5,0,4.4-.1,5.8-.4,1.4-.3,2.5-.9,3.2-1.8.8-.9,1.2-2.3,1.2-4.2s-.4-3.4-1.3-4.3c-.8-.9-2-1.5-3.3-1.7-1.4-.2-3.4-.4-5.9-.4h-9.9v12.7h10.2Z"/>
    <path d="m392.3.9h39.1v10.1h-27.5v10.5h23.9v9.5h-23.9v10.6h27.5v10.1h-39.1V.9Z"/>
    <path d="m474.9.9h-24.8l-14.6,50.8h12.1l4.5-16.3h20.7l4.6,16.3h12.2L474.9.9Zm-20,24.3l6-21.5h3l6,21.5h-15Z"/>
    <polygon points="530.9 .9 530.9 11 514.4 11 514.4 51.7 502.8 51.7 502.8 11 486.2 11 486.2 .9 530.9 .9"/>
    <path d="m535.7,12.8c2.1-4,5.1-7.1,9.1-9.4,3.9-2.3,8.5-3.4,13.8-3.4s9.8,1.1,13.8,3.4c3.9,2.3,6.9,5.4,9,9.4,2.1,4,3.1,8.5,3.1,13.5s-1,9.6-3.1,13.5c-2.1,4-5.1,7.1-9,9.4-3.9,2.3-8.5,3.4-13.8,3.4s-9.9-1.1-13.8-3.4c-3.9-2.3-7-5.4-9.1-9.4-2.1-4-3.2-8.5-3.2-13.5s1.1-9.5,3.2-13.5Zm10.3,22c1.1,2.4,2.7,4.2,4.8,5.5,2.1,1.3,4.7,1.9,7.8,1.9s5.7-.6,7.8-1.9c2.1-1.3,3.6-3.1,4.7-5.5,1-2.4,1.5-5.2,1.5-8.5s-.5-6.2-1.5-8.5c-1-2.4-2.6-4.2-4.7-5.4-2.1-1.2-4.7-1.9-7.8-1.9s-5.7.6-7.8,1.9c-2.1,1.3-3.7,3.1-4.8,5.5s-1.6,5.2-1.6,8.5.5,6.2,1.6,8.5Z"/>
    <path d="m591.5.9h21.5c4.3,0,8,.4,11.3,1.2,3.2.8,5.8,2.1,7.8,4.1,2,2,3,4.7,3,8.2s-.5,4.6-1.6,6.2c-1.1,1.6-2.4,2.7-4,3.5-1.6.8-3.3,1.3-5.3,1.7h-.5v3h5.5c2,0,3.6.6,4.6,1.8,1.1,1.2,1.6,2.9,1.6,5.1v16.1h-11.5v-17.9h-20.9v17.9h-11.6V.9Zm21.8,22.8c2.5,0,4.4-.1,5.8-.4,1.4-.3,2.5-.9,3.2-1.8.8-.9,1.2-2.3,1.2-4.2s-.4-3.4-1.3-4.3c-.8-.9-2-1.5-3.3-1.7-1.4-.2-3.4-.4-5.9-.4h-9.9v12.7h10.2Z"/>
  </g>
</svg>