<?xml version="1.0" encoding="UTF-8"?>
<svg id="Layer_2" data-name="Layer 2" xmlns="http://www.w3.org/2000/svg" viewBox="0 0 640.8 54.8">
  <g id="Layer_1-2" data-name="Layer 1">
    <path d="m42.1,50c-3.6,2.7-9.3,4.1-16.9,4.1s-14.9-1.8-19-5.3c-4.1-3.5-6.2-8.7-6.2-15.4h12c0,2.6.4,4.7,1.3,6.3.8,1.6,2.2,2.8,4.2,3.5,2,.8,4.6,1.1,7.9,1.1s6.1-.4,7.7-1.3c1.8-1,2.5-2.5,2.4-4.7s0-.7-.2-1c-.7-1.6-2.4-2.7-5.1-3.5l-16.5-4.4c-4.1-1.1-7-2.8-8.8-5.1-1.8-2.3-2.7-5.2-2.7-8.6S3.9,7.4,7.4,4.8c3.5-2.5,8.5-3.8,15-3.8s9.4.7,12.8,2.2c3.5,1.5,6.1,3.6,7.8,6.4,1.7,2.8,2.6,6,2.6,9.8h-12c0-3-.9-5.3-2.8-6.7-1.8-1.4-4.6-2.1-8.4-2.1s-4.8.4-6.2,1.2c-1.4.8-2.1,2.1-2.1,3.8s.4,2,1.1,2.7c.7.7,2,1.3,3.7,1.8l16.1,4c4.1,1.1,7.2,2.8,9.2,5.2,2.1,2.4,3.1,5.4,3.1,9.1s-1.8,8.8-5.4,11.6Z"/>
    <path d="m54.3,2.4h39v10h-28v10h24v9h-24v11h28v10h-39V2.4Z"/>
    <path d="m101.9,50.8c-1.1-1-1.6-2.5-1.6-4.4V1.4h12v41h24v10h-29.8c-2,0-3.5-.5-4.5-1.6Z"/>
    <path d="m142.3,2.4h39v10h-28v10h24v9h-24v11h28v10h-39V2.4Z"/>
    <path d="m197.5,51.3c-4.1-2.4-7.3-5.6-9.5-9.8-2.2-4.1-3.3-8.9-3.3-14.1s1.1-9.9,3.3-14c2.2-4.1,5.4-7.4,9.5-9.8,4.1-2.4,8.9-3.6,14.4-3.6s9.3.9,13,2.6c3.7,1.7,6.7,4.2,9,7.4,2.3,3.2,3.7,7,4.2,11.4h-12.4c-.6-3.3-2-5.9-4.5-7.7-2.4-1.8-5.5-2.8-9.2-2.8s-5.7.6-8,1.8c-2.3,1.2-4,3.1-5.3,5.6-1.2,2.5-1.8,5.5-1.8,9.1s.6,6.6,1.8,9.1c1.2,2.5,3,4.3,5.3,5.6,2.3,1.3,4.9,1.9,8,1.9s6.8-.9,9.2-2.8c2.4-1.9,3.9-4.5,4.5-7.8h12.4c-.5,4.4-1.9,8.2-4.2,11.4-2.3,3.2-5.3,5.7-9,7.4-3.7,1.7-8.1,2.6-13,2.6s-10.4-1.2-14.5-3.6Z"/>
    <polygon points="284.3 1.4 284.3 11.4 267.3 11.4 267.3 52.4 255.3 52.4 255.3 11.4 239.3 11.4 239.3 1.4 284.3 1.4"/>
    <path d="m290.3,2.4h39v10h-28v10h24v9h-24v11h28v10h-39V2.4Z"/>
    <path d="m380,10.9c-2.6-3.8-5.9-6.3-10-7.6-4.1-1.3-8.7-1.9-14-1.9h-18.7v51h18.7c5.3,0,9.9-.6,14-1.9,4-1.3,7.4-3.8,10-7.6,2.6-3.8,3.9-9.1,3.9-16s-1.3-12.2-3.9-15.9Zm-10.2,26.4c-1.4,2.2-3.2,3.6-5.3,4.2-2.2.6-5.2.8-9,.8h-7.2V11.4h7.2c3.8,0,6.7.3,8.9.9,2.2.6,4,2,5.4,4.2s2.1,5.7,2.1,10.4-.7,8.2-2.1,10.4Z"/>
    <path d="m472.5,52.4h-22.4l-4.7-48h-2.8l-4.6,48h-22.6l-7.4-51h11.5l5.9,39.6-.8,8.4h2.8l4.7-48h23.6l4.7,48h2.9l-.7-8.4,5.8-39.6h11.4l-7.3,51Z"/>
    <path d="m486.6,13.7c2.1-4,5.1-7.1,9.1-9.4,3.9-2.3,8.5-3.4,13.8-3.4s9.8,1.1,13.8,3.4c3.9,2.3,6.9,5.4,9,9.4,2.1,4,3.1,8.5,3.1,13.5s-1,9.6-3.1,13.5c-2.1,4-5.1,7.1-9,9.4-3.9,2.3-8.5,3.4-13.8,3.4s-9.9-1.1-13.8-3.4c-3.9-2.3-7-5.4-9.1-9.4-2.1-4-3.2-8.5-3.2-13.5s1.1-9.5,3.2-13.5Zm10.3,22c1.1,2.4,2.7,4.2,4.8,5.5,2.1,1.3,4.7,1.9,7.8,1.9s5.7-.6,7.8-1.9c2.1-1.3,3.6-3.1,4.7-5.5,1-2.4,1.5-5.2,1.5-8.5s-.5-6.2-1.5-8.5c-1-2.4-2.6-4.2-4.7-5.4-2.1-1.2-4.7-1.9-7.8-1.9s-5.7.6-7.8,1.9c-2.1,1.3-3.7,3.1-4.8,5.5s-1.6,5.2-1.6,8.5.5,6.2,1.6,8.5Z"/>
    <path d="m542.3,1.4h21.4c4.2,0,8,.4,11.2,1.2,3.2.8,5.8,2.2,7.7,4.2,2,2,2.9,4.8,2.9,8.3s-.5,4.6-1.6,6.2c-1,1.6-2.4,2.7-3.9,3.5-1.6.8-3.3,1.3-5.2,1.7h-.5v3h5.6c2.1,0,3.6.6,4.7,1.8,1.1,1.2,1.7,2.9,1.7,5.1v16.1h-11v-18h-21v18h-12V1.4Zm22.4,23c2.5,0,4.5-.1,5.9-.4,1.4-.3,2.5-.9,3.3-1.8.8-.9,1.2-2.4,1.2-4.3s-.4-3.5-1.3-4.4c-.9-.9-2-1.5-3.4-1.7-1.4-.2-3.4-.4-6-.4h-10.1v13h10.4Z"/>
    <polygon points="640.8 52.4 627.4 52.4 609.2 30.4 606.3 30.4 606.3 52.4 594.3 52.4 594.3 2.4 606.3 2.4 606.3 22.4 609.4 22.4 627.6 2.4 640.4 2.4 619.1 26.4 640.8 52.4"/>
  </g>
</svg>