<?xml version="1.0" encoding="UTF-8"?>
<svg id="Layer_2" data-name="Layer 2" xmlns="http://www.w3.org/2000/svg" viewBox="0 0 413 29.2">
  <defs>
    <style>
      .cls-1 {
        fill: #231f20;
        stroke-width: 0px;
      }
    </style>
  </defs>
  <g id="Layer_1-2" data-name="Layer 1">
    <path class="cls-1" d="m23.2,27c-2,1.5-5.1,2.3-9.3,2.3s-8.2-1-10.5-2.9c-2.3-1.9-3.4-4.8-3.4-8.5h6.6c0,1.4.2,2.6.7,3.5.5.9,1.2,1.5,2.3,1.9,1.1.4,2.5.6,4.4.6s3.4-.2,4.2-.7,1.3-1.2,1.3-2.3-.2-1.2-.7-1.7c-.5-.5-1.2-.8-2.2-1.1l-9.1-2.4c-2.2-.6-3.9-1.6-4.9-2.8s-1.5-2.8-1.5-4.7,1-4.7,2.9-6.1S8.8,0,12.4,0s5.2.4,7.1,1.2c1.9.8,3.4,2,4.3,3.5,1,1.5,1.4,3.3,1.4,5.4h-6.6c0-1.7-.5-2.9-1.5-3.7-1-.8-2.6-1.2-4.6-1.2s-2.7.2-3.4.7c-.8.4-1.2,1.1-1.2,2.1s.2,1.1.6,1.5c.4.4,1.1.7,2.1,1l8.9,2.2c2.3.6,4,1.5,5.1,2.9,1.1,1.3,1.7,3,1.7,5s-1,4.9-3,6.4Z"/>
    <path class="cls-1" d="m29.8.5h21.7v5.6h-15.3v5.8h13.3v5.3h-13.3v5.9h15.3v5.6h-21.7V.5Z"/>
    <path class="cls-1" d="m60.9,27.3c-2.2-1.3-3.9-3-5.1-5.2-1.2-2.2-1.8-4.7-1.8-7.5s.6-5.3,1.8-7.5c1.2-2.2,2.9-4,5.1-5.2,2.2-1.3,4.8-1.9,7.7-1.9s5,.5,6.9,1.4c2,.9,3.6,2.2,4.8,3.9,1.2,1.7,2,3.7,2.2,6.1h-6.6c-.3-1.8-1.1-3.1-2.4-4.1-1.3-1-2.9-1.5-4.9-1.5s-3,.3-4.3,1c-1.2.7-2.1,1.6-2.8,3-.7,1.3-1,2.9-1,4.8s.3,3.5,1,4.9c.7,1.3,1.6,2.3,2.8,3s2.6,1,4.3,1,3.6-.5,4.9-1.5c1.3-1,2.1-2.4,2.4-4.1h6.6c-.3,2.3-1,4.4-2.2,6.1-1.2,1.7-2.8,3-4.8,4-2,.9-4.3,1.4-6.9,1.4s-5.5-.6-7.7-1.9Z"/>
    <path class="cls-1" d="m87.3,27.8c-.6-.6-.9-1.4-.9-2.5V.5h6.4v22.6h13.7v5.6h-16.7c-1.1,0-1.9-.3-2.5-.9Z"/>
    <path class="cls-1" d="m109.3.5h21.7v5.6h-15.3v5.8h13.3v5.3h-13.3v5.9h15.3v5.6h-21.7V.5Z"/>
    <path class="cls-1" d="m140.4,27.3c-2.2-1.3-3.9-3-5.1-5.2-1.2-2.2-1.8-4.7-1.8-7.5s.6-5.3,1.8-7.5c1.2-2.2,2.9-4,5.1-5.2s4.8-1.9,7.7-1.9,5,.5,6.9,1.4c2,.9,3.6,2.2,4.8,3.9,1.2,1.7,2,3.7,2.2,6.1h-6.6c-.3-1.8-1.1-3.1-2.4-4.1-1.3-1-2.9-1.5-4.9-1.5s-3,.3-4.3,1c-1.2.7-2.1,1.6-2.8,3-.7,1.3-1,2.9-1,4.8s.3,3.5,1,4.9c.7,1.3,1.6,2.3,2.8,3,1.2.7,2.6,1,4.3,1s3.6-.5,4.9-1.5c1.3-1,2.1-2.4,2.4-4.1h6.6c-.3,2.3-1,4.4-2.2,6.1-1.2,1.7-2.8,3-4.8,4-2,.9-4.3,1.4-6.9,1.4s-5.5-.6-7.7-1.9Z"/>
    <polygon class="cls-1" points="188.2 .5 188.2 6.1 179 6.1 179 28.7 172.6 28.7 172.6 6.1 163.3 6.1 163.3 .5 188.2 .5"/>
    <path class="cls-1" d="m191.6.5h21.7v5.6h-15.3v5.8h13.3v5.3h-13.3v5.9h15.3v5.6h-21.7V.5Z"/>
    <path class="cls-1" d="m241.3,5.8c-1.4-2.1-3.3-3.5-5.5-4.2-2.2-.7-4.8-1.1-7.7-1.1h-10.4v28.2h10.4c2.9,0,5.5-.4,7.7-1.1,2.2-.7,4.1-2.1,5.5-4.2s2.2-5,2.2-8.8-.7-6.7-2.2-8.8Zm-5.4,14.5c-.8,1.2-1.7,2-2.9,2.3-1.2.3-2.8.5-4.9.5h-3.9V6.1h3.9c2,0,3.7.2,4.9.5,1.2.3,2.2,1.1,2.9,2.3.8,1.2,1.2,3.1,1.2,5.7s-.4,4.5-1.1,5.7Z"/>
    <path class="cls-1" d="m292.9,28.7h-12.5l-2.6-26.6h-1.6l-2.6,26.6h-12.6l-4.1-28.2h6.4l3.3,21.9-.4,4.7h1.6l2.6-26.6h13.1l2.6,26.6h1.6l-.4-4.6,3.2-22h6.4l-4,28.2Z"/>
    <path class="cls-1" d="m300.8,7.1c1.2-2.2,2.9-4,5-5.2,2.2-1.3,4.7-1.9,7.7-1.9s5.5.6,7.6,1.9,3.9,3,5,5.2c1.2,2.2,1.7,4.7,1.7,7.5s-.6,5.3-1.7,7.5c-1.2,2.2-2.8,4-5,5.2s-4.7,1.9-7.6,1.9-5.5-.6-7.7-1.9c-2.2-1.3-3.9-3-5-5.2-1.2-2.2-1.8-4.7-1.8-7.5s.6-5.3,1.8-7.5Zm5.7,12.2c.6,1.3,1.5,2.3,2.7,3s2.6,1.1,4.3,1.1,3.2-.4,4.3-1.1,2-1.7,2.6-3c.6-1.3.9-2.9.9-4.7s-.3-3.4-.9-4.7c-.6-1.3-1.4-2.3-2.6-3-1.2-.7-2.6-1-4.3-1s-3.2.4-4.3,1.1-2,1.7-2.6,3c-.6,1.3-.9,2.9-.9,4.7s.3,3.4.9,4.7Z"/>
    <path class="cls-1" d="m331.8.5h12c2.4,0,4.5.2,6.3.6,1.8.4,3.2,1.2,4.3,2.3,1.1,1.1,1.6,2.6,1.6,4.6s-.3,2.6-.9,3.4-1.3,1.5-2.2,1.9c-.9.4-1.9.7-2.9.9h-.3v1.6h3c1.1,0,2,.3,2.6,1,.6.7.9,1.6.9,2.8v8.9h-6.4v-9.9h-11.6v9.9h-6.4V.5Zm12.1,12.7c1.4,0,2.5,0,3.2-.2.8-.2,1.4-.5,1.8-1,.4-.5.6-1.3.6-2.3s-.2-1.9-.7-2.4c-.5-.5-1.1-.8-1.9-.9-.8-.1-1.9-.2-3.3-.2h-5.5v7.1h5.7Z"/>
    <polygon class="cls-1" points="386.5 28.7 378.4 28.7 368.6 16.7 367 16.7 367 28.7 360.6 28.7 360.6 .5 367 .5 367 11.7 368.7 11.7 378.5 .5 386.3 .5 374.3 14.1 386.5 28.7"/>
    <path class="cls-1" d="m410,27c-2,1.5-5.1,2.3-9.3,2.3s-8.2-1-10.5-2.9c-2.3-1.9-3.4-4.8-3.4-8.5h6.6c0,1.4.2,2.6.7,3.5.5.9,1.2,1.5,2.3,1.9,1.1.4,2.5.6,4.4.6s3.4-.2,4.2-.7c.9-.5,1.3-1.2,1.3-2.3s-.2-1.2-.7-1.7c-.5-.5-1.2-.8-2.2-1.1l-9.1-2.4c-2.2-.6-3.9-1.6-4.9-2.8s-1.5-2.8-1.5-4.7,1-4.7,2.9-6.1,4.7-2.1,8.3-2.1,5.2.4,7.1,1.2c1.9.8,3.4,2,4.3,3.5,1,1.5,1.4,3.3,1.4,5.4h-6.6c0-1.7-.5-2.9-1.5-3.7-1-.8-2.6-1.2-4.6-1.2s-2.7.2-3.4.7c-.8.4-1.2,1.1-1.2,2.1s.2,1.1.6,1.5c.4.4,1.1.7,2.1,1l8.9,2.2c2.3.6,4,1.5,5.1,2.9,1.1,1.3,1.7,3,1.7,5s-1,4.9-3,6.4Z"/>
  </g>
</svg>