<?xml version="1.0" encoding="UTF-8"?>
<svg id="Layer_2" data-name="Layer 2" xmlns="http://www.w3.org/2000/svg" viewBox="0 0 365 29.2">
  <defs>
    <style>
      .cls-1 {
        stroke-width: 0px;
      }
    </style>
  </defs>
  <g id="Layer_1-2" data-name="Layer 1">
    <path class="cls-1" d="m0,.5h6.4v14.9c0,.4,0,.7,0,1,0,1.7.2,3.1.5,4.1.3,1,.9,1.8,1.8,2.3.9.5,2.2.8,4,.8s3.1-.3,4.1-.8c.9-.5,1.5-1.3,1.8-2.3.3-1,.4-2.4.4-4.2,0-.2,0-.5,0-.8V.5h6.4v17.7c0,3.6-1.1,6.3-3.3,8.2-2.2,1.9-5.4,2.8-9.5,2.8s-5.1-.4-7-1.3c-1.9-.8-3.3-2.1-4.3-3.7-1-1.6-1.5-3.6-1.5-6V.5Z"/>
    <polygon class="cls-1" points="41.9 6.1 41.9 23.1 48.3 23.1 48.3 28.7 29.1 28.7 29.1 23.1 35.5 23.1 35.5 6.1 29.1 6.1 29.1 .5 48.3 .5 48.3 6.1 41.9 6.1"/>
    <path class="cls-1" d="m69.9.5l-12.9,28.2h-5L65.2.5h4.7Z"/>
    <path class="cls-1" d="m97.9.5v17.7c0,3.6-1.1,6.3-3.3,8.2-2.2,1.9-5.4,2.8-9.5,2.8s-5.1-.4-7-1.3c-1.9-.8-3.3-2.1-4.3-3.7-1-1.6-1.5-3.6-1.5-6V.5h6.4v14.9c0,.4,0,.7,0,1,0,1.7.2,3.1.5,4.1s.9,1.8,1.8,2.3c.9.5,2.2.8,4,.8s3.1-.3,4.1-.8c.9-.5,1.5-1.3,1.8-2.3.3-1,.4-2.4.4-4.2,0-.2,0-.5,0-.8V.5h6.4Z"/>
    <path class="cls-1" d="m122.2,28.7l-6.7-11.3h-1.6l-6.6,11.3h-7.3l8.8-14.1L99.9.5h7.3l6.6,11.2h1.6l6.7-11.2h7.3l-8.9,14.1,8.9,14.1h-7.3Z"/>
    <path class="cls-1" d="m167.2,5.8c-1.4-2.1-3.3-3.5-5.5-4.2-2.2-.7-4.8-1.1-7.7-1.1h-10.4v28.2h10.4c2.9,0,5.5-.4,7.7-1.1,2.2-.7,4.1-2.1,5.5-4.2s2.2-5,2.2-8.8-.7-6.7-2.2-8.8Zm-5.4,14.5c-.8,1.2-1.7,2-2.9,2.3-1.2.3-2.8.5-4.9.5h-3.9V6.1h3.9c2,0,3.7.2,4.9.5,1.2.3,2.2,1.1,2.9,2.3.8,1.2,1.2,3.1,1.2,5.7s-.4,4.5-1.1,5.7Z"/>
    <path class="cls-1" d="m173.3.5h21.7v5.6h-15.3v5.8h13.3v5.3h-13.3v5.9h15.3v5.6h-21.7V.5Z"/>
    <path class="cls-1" d="m220.9,27c-2,1.5-5.1,2.3-9.3,2.3s-8.2-1-10.5-2.9c-2.3-1.9-3.4-4.8-3.4-8.5h6.6c0,1.4.2,2.6.7,3.5.5.9,1.2,1.5,2.3,1.9,1.1.4,2.5.6,4.4.6s3.4-.2,4.2-.7,1.3-1.2,1.3-2.3-.2-1.2-.7-1.7c-.5-.5-1.2-.8-2.2-1.1l-9.1-2.4c-2.2-.6-3.9-1.6-4.9-2.8s-1.5-2.8-1.5-4.7,1-4.7,2.9-6.1S206.5,0,210.1,0s5.2.4,7.1,1.2c1.9.8,3.4,2,4.3,3.5,1,1.5,1.4,3.3,1.4,5.4h-6.6c0-1.7-.5-2.9-1.5-3.7-1-.8-2.6-1.2-4.6-1.2s-2.7.2-3.4.7c-.8.4-1.2,1.1-1.2,2.1s.2,1.1.6,1.5c.4.4,1.1.7,2.1,1l8.9,2.2c2.3.6,4,1.5,5.1,2.9,1.1,1.3,1.7,3,1.7,5s-1,4.9-3,6.4Z"/>
    <polygon class="cls-1" points="239.4 6.1 239.4 23.1 245.7 23.1 245.7 28.7 226.6 28.7 226.6 23.1 232.9 23.1 232.9 6.1 226.6 6.1 226.6 .5 245.7 .5 245.7 6.1 239.4 6.1"/>
    <path class="cls-1" d="m276.7,16.4v12.3h-6.4v-2.2l1.2-4.8h-1.6c0,.7,0,1.7-.5,2.8-.4,1.2-1.3,2.2-2.6,3.2s-3.2,1.4-5.8,1.4-5.2-.6-7.2-1.8c-2-1.2-3.5-2.9-4.6-5-1-2.2-1.6-4.7-1.6-7.5s.6-5.6,1.8-7.9,2.8-4,5-5.2c2.2-1.2,4.7-1.8,7.5-1.8s4.6.4,6.6,1.3c2,.9,3.6,2.1,4.9,3.7,1.3,1.6,2.1,3.5,2.4,5.6h-6.6c-.3-1.6-1-2.8-2.3-3.7-1.2-.9-2.8-1.4-4.6-1.4s-3.1.4-4.3,1.1c-1.2.7-2.1,1.8-2.8,3.2s-1,3-1,4.9c0,2.8.7,5,2,6.5,1.4,1.6,3.5,2.4,6.3,2.4s3.2-.3,4.4-.9c1.2-.6,2.1-1.5,2.6-2.6.3-.7.5-1.5.5-2.3h-7.8v-4.9h10.8c1.1,0,2,.3,2.6.9s.9,1.5.9,2.6Z"/>
    <path class="cls-1" d="m281.6.5h12.6l8.5,26.6h1.6l-1.2-4V.5h6.4v28.2h-12.6l-8.4-26.6h-1.6l1.2,4v22.6h-6.4V.5Z"/>
    <path class="cls-1" d="m314.5.5h21.7v5.6h-15.3v5.8h13.3v5.3h-13.3v5.9h15.3v5.6h-21.7V.5Z"/>
    <path class="cls-1" d="m340.6.5h12c2.4,0,4.5.2,6.3.6,1.8.4,3.2,1.2,4.3,2.3,1.1,1.1,1.6,2.6,1.6,4.6s-.3,2.6-.9,3.4-1.3,1.5-2.2,1.9c-.9.4-1.9.7-2.9.9h-.3v1.6h3c1.1,0,2,.3,2.6,1,.6.7.9,1.6.9,2.8v8.9h-6.4v-9.9h-11.6v9.9h-6.4V.5Zm12.1,12.7c1.4,0,2.5,0,3.2-.2.8-.2,1.4-.5,1.8-1,.4-.5.6-1.3.6-2.3s-.2-1.9-.7-2.4c-.5-.5-1.1-.8-1.9-.9-.8-.1-1.9-.2-3.3-.2h-5.5v7.1h5.7Z"/>
  </g>
</svg>