<?xml version="1.0" encoding="UTF-8"?>
<svg id="Layer_2" data-name="Layer 2" xmlns="http://www.w3.org/2000/svg" viewBox="0 0 246.8 54.9">
  <g id="Layer_1-2" data-name="Layer 1">
    <path d="m0,1.5h11.6v26.8c0,.7,0,1.2,0,1.7,0,3.1.3,5.6.8,7.4.6,1.8,1.6,3.2,3.2,4.1,1.6,1,4,1.4,7.2,1.4s5.7-.5,7.3-1.5c1.7-1,2.7-2.4,3.3-4.2.5-1.8.8-4.3.8-7.6,0-.4,0-.9,0-1.4V1.5h11.6v31.9c0,6.4-2,11.3-5.9,14.7-3.9,3.4-9.6,5-17.2,5s-9.1-.8-12.5-2.3c-3.4-1.5-6-3.7-7.7-6.7-1.8-2.9-2.6-6.5-2.6-10.8V1.5Z"/>
    <polygon points="75.4 11.6 75.4 42.1 86.8 42.1 86.8 52.3 52.3 52.3 52.3 42.1 63.8 42.1 63.8 11.6 52.3 11.6 52.3 1.5 86.8 1.5 86.8 11.6 75.4 11.6"/>
    <path d="m134.2,3l-29.4,51.9-8.2-3.1L126.1,0l8.1,3Z"/>
    <path d="m144,1.5h11.6v26.8c0,.7,0,1.2,0,1.7,0,3.1.3,5.6.8,7.4.6,1.8,1.6,3.2,3.2,4.1,1.6,1,4,1.4,7.2,1.4s5.7-.5,7.3-1.5c1.7-1,2.7-2.4,3.3-4.2.5-1.8.8-4.3.8-7.6,0-.4,0-.9,0-1.4V1.5h11.6v31.9c0,6.4-2,11.3-5.9,14.7-3.9,3.4-9.6,5-17.2,5s-9.1-.8-12.5-2.3c-3.4-1.5-6-3.7-7.7-6.7-1.8-2.9-2.6-6.5-2.6-10.8V1.5Z"/>
    <path d="m233.6,52.3l-12.1-20.4h-2.9l-12,20.4h-13.2l15.9-25.4-15.9-25.3h13.2l12,20.2h2.9l12.1-20.2h13.2l-16,25.3,16,25.4h-13.2Z"/>
  </g>
</svg>