<?xml version="1.0" encoding="UTF-8"?>
<svg id="Layer_2" data-name="Layer 2" xmlns="http://www.w3.org/2000/svg" viewBox="0 0 356.1 52.6">
  <g id="Layer_1-2" data-name="Layer 1">
    <path d="m64.5,51.7h-22.5L37.4,3.8h-2.8l-4.6,47.9H7.3L0,.9h11.6l5.9,39.5-.8,8.4h2.8L24.2.9h23.5l4.7,47.9h2.9l-.7-8.4L60.3.9h11.4l-7.3,50.8Z"/>
    <path d="m77.5.9h39.1v10.1h-27.5v10.5h23.9v9.5h-23.9v10.6h27.5v10.1h-39.1V.9Z"/>
    <path d="m124.5.9h20.8c4.9,0,8.8.3,11.8,1,3,.7,5.2,1.9,6.7,3.7,1.5,1.8,2.3,4.3,2.3,7.5s-.5,4.6-1.5,6.1c-1,1.5-2.2,2.5-3.7,3.1-1.5.6-3.3.9-5.4,1.1-.5,0-.9,0-1.3.1v2.7c.4,0,.7,0,1,0,3.1.1,5.6.5,7.6,1.1,2,.6,3.7,1.7,5,3.3,1.3,1.7,2,4,2,7.2s-1,6.5-3,8.5c-2,2-4.6,3.3-8,4.1-3.3.7-7.5,1.1-12.6,1.1h-21.9V.9Zm23.5,19.8c1.6,0,2.8-.2,3.8-.4.9-.2,1.7-.7,2.2-1.5.6-.8.8-1.9.8-3.3s-.3-2.8-.9-3.5c-.6-.8-1.4-1.3-2.5-1.5-1.1-.2-2.5-.3-4.4-.3h-11v10.5h12Zm.9,21.2c2.3,0,4-.2,5.3-.5,1.2-.3,2.2-.9,2.9-1.8.7-.9,1-2.1,1-3.8s-.3-2.9-1-3.7c-.7-.8-1.6-1.4-2.7-1.8-1.2-.3-2.8-.5-4.8-.6h-13.5v12.1h12.9Z"/>
    <path d="m215.9,48.6c-3.6,2.7-9.2,4.1-16.8,4.1s-14.8-1.8-18.9-5.3c-4.1-3.5-6.1-8.6-6.1-15.3h12c0,2.6.4,4.7,1.3,6.3s2.2,2.7,4.2,3.5c1.9.7,4.6,1.1,7.9,1.1s6-.4,7.6-1.3,2.4-2.2,2.4-4.1-.4-2.2-1.3-3c-.9-.8-2.2-1.5-3.9-1.9l-16.4-4.3c-4-1.1-6.9-2.8-8.7-5.1-1.8-2.3-2.7-5.1-2.7-8.5s1.7-8.4,5.2-10.9,8.4-3.8,14.9-3.8,9.3.7,12.7,2.2c3.5,1.5,6,3.6,7.8,6.3,1.7,2.8,2.6,6,2.6,9.7h-11.9c0-3-.9-5.2-2.7-6.6-1.8-1.4-4.6-2.1-8.4-2.1s-4.8.4-6.2,1.2c-1.4.8-2.1,2.1-2.1,3.8s.4,1.9,1.1,2.7c.7.7,2,1.3,3.7,1.8l16,4c4.1,1.1,7.1,2.8,9.2,5.1s3.1,5.4,3.1,9-1.8,8.8-5.4,11.5Z"/>
    <polygon points="249 11 249 41.5 260.5 41.5 260.5 51.7 226 51.7 226 41.5 237.4 41.5 237.4 11 226 11 226 .9 260.5 .9 260.5 11 249 11"/>
    <polygon points="310.7 .9 310.7 11 294.2 11 294.2 51.7 282.7 51.7 282.7 11 266 11 266 .9 310.7 .9"/>
    <path d="m317,.9h39.1v10.1h-27.5v10.5h23.9v9.5h-23.9v10.6h27.5v10.1h-39.1V.9Z"/>
  </g>
</svg>