<?xml version="1.0" encoding="UTF-8"?>
<svg id="Layer_2" data-name="Layer 2" xmlns="http://www.w3.org/2000/svg" viewBox="0 0 974.5 52.6">
  <defs>
    <style>
      .cls-1 {
        stroke-width: 0px;
      }
    </style>
  </defs>
  <g id="Layer_1-2" data-name="Layer 1">
    <path class="cls-1" d="m64.5,51.7h-22.5L37.4,3.8h-2.8l-4.6,47.9H7.3L0,.9h11.6l5.9,39.5-.8,8.4h2.8L24.2.9h23.5l4.7,47.9h2.9l-.7-8.4L60.3.9h11.4l-7.3,50.8Z"/>
    <path class="cls-1" d="m77.5.9h39.1v10.1h-27.5v10.5h23.9v9.5h-23.9v10.6h27.5v10.1h-39.1V.9Z"/>
    <path class="cls-1" d="m126,50.1c-1.1-1.1-1.6-2.5-1.6-4.5V.9h11.6v40.6h24.6v10.2h-30c-2,0-3.5-.5-4.6-1.6Z"/>
    <path class="cls-1" d="m174.1,49.2c-3.9-2.3-7-5.4-9.1-9.4-2.1-4-3.2-8.5-3.2-13.5s1.1-9.5,3.2-13.5c2.1-4,5.2-7.1,9.1-9.4,4-2.3,8.6-3.4,13.9-3.4s8.9.8,12.5,2.5c3.6,1.7,6.5,4,8.6,7.1,2.2,3.1,3.5,6.7,4,10.9h-11.9c-.5-3.2-2-5.6-4.3-7.4-2.3-1.8-5.3-2.7-8.8-2.7s-5.5.6-7.7,1.8c-2.2,1.2-3.9,3-5,5.4-1.2,2.4-1.8,5.3-1.8,8.7s.6,6.4,1.8,8.7c1.2,2.4,2.9,4.2,5,5.4,2.2,1.2,4.7,1.8,7.7,1.8s6.5-.9,8.8-2.7c2.3-1.8,3.8-4.3,4.3-7.5h11.9c-.5,4.2-1.8,7.9-4,11-2.2,3.1-5.1,5.5-8.6,7.1-3.6,1.7-7.7,2.5-12.5,2.5s-10-1.1-13.9-3.4Z"/>
    <path class="cls-1" d="m221.3,12.8c2.1-4,5.1-7.1,9.1-9.4,3.9-2.3,8.5-3.4,13.8-3.4s9.8,1.1,13.8,3.4c3.9,2.3,6.9,5.4,9,9.4,2.1,4,3.1,8.5,3.1,13.5s-1,9.6-3.1,13.5c-2.1,4-5.1,7.1-9,9.4-3.9,2.3-8.5,3.4-13.8,3.4s-9.9-1.1-13.8-3.4c-3.9-2.3-7-5.4-9.1-9.4-2.1-4-3.2-8.5-3.2-13.5s1.1-9.5,3.2-13.5Zm10.3,22c1.1,2.4,2.7,4.2,4.8,5.5,2.1,1.3,4.7,1.9,7.8,1.9s5.7-.6,7.8-1.9c2.1-1.3,3.6-3.1,4.7-5.5,1-2.4,1.5-5.2,1.5-8.5s-.5-6.2-1.5-8.5c-1-2.4-2.6-4.2-4.7-5.4-2.1-1.2-4.7-1.9-7.8-1.9s-5.7.6-7.8,1.9c-2.1,1.3-3.7,3.1-4.8,5.5-1.1,2.4-1.6,5.2-1.6,8.5s.5,6.2,1.6,8.5Z"/>
    <path class="cls-1" d="m277.1.9h22.8l6.8,47.9h3l6.8-47.9h22.6v50.8h-11.5V17.4l2.1-13.6h-2.8l-7.6,47.9h-22.5l-7.4-47.9h-3l2.2,13.6v34.3h-11.6V.9Z"/>
    <path class="cls-1" d="m347.9.9h39.1v10.1h-27.5v10.5h23.9v9.5h-23.9v10.6h27.5v10.1h-39.1V.9Z"/>
    <polygon class="cls-1" points="457.3 .9 457.3 11 440.8 11 440.8 51.7 429.3 51.7 429.3 11 412.6 11 412.6 .9 457.3 .9"/>
    <path class="cls-1" d="m462.1,12.8c2.1-4,5.1-7.1,9.1-9.4,3.9-2.3,8.5-3.4,13.8-3.4s9.8,1.1,13.8,3.4c3.9,2.3,6.9,5.4,9,9.4,2.1,4,3.1,8.5,3.1,13.5s-1,9.6-3.1,13.5c-2.1,4-5.1,7.1-9,9.4-3.9,2.3-8.5,3.4-13.8,3.4s-9.9-1.1-13.8-3.4c-3.9-2.3-7-5.4-9.1-9.4-2.1-4-3.2-8.5-3.2-13.5s1.1-9.5,3.2-13.5Zm10.3,22c1.1,2.4,2.7,4.2,4.8,5.5,2.1,1.3,4.7,1.9,7.8,1.9s5.7-.6,7.8-1.9c2.1-1.3,3.6-3.1,4.7-5.5,1-2.4,1.5-5.2,1.5-8.5s-.5-6.2-1.5-8.5c-1-2.4-2.6-4.2-4.7-5.4-2.1-1.2-4.7-1.9-7.8-1.9s-5.7.6-7.8,1.9c-2.1,1.3-3.7,3.1-4.8,5.5-1.1,2.4-1.6,5.2-1.6,8.5s.5,6.2,1.6,8.5Z"/>
    <path class="cls-1" d="m577.3,8.5c-1.6-2.7-4.1-4.6-7.4-5.8-3.3-1.2-7.6-1.8-12.8-1.8h-18.7v50.8h11.6v-14.6h7.1c7.8,0,13.5-1.4,17.2-4.2,3.6-2.8,5.4-7.4,5.4-13.9s-.8-7.8-2.4-10.5Zm-10.3,15.3c-.8,1.2-1.9,2-3.4,2.5-1.5.5-3.5.7-5.9.7h-7.8v-16h7.8c2.5,0,4.4.2,5.9.7,1.5.5,2.6,1.3,3.4,2.4.8,1.1,1.2,2.8,1.2,4.9s-.4,3.6-1.2,4.8Z"/>
    <path class="cls-1" d="m588.3,12.8c2.1-4,5.1-7.1,9.1-9.4,3.9-2.3,8.5-3.4,13.8-3.4s9.8,1.1,13.8,3.4c3.9,2.3,6.9,5.4,9,9.4,2.1,4,3.1,8.5,3.1,13.5s-1,9.6-3.1,13.5c-2.1,4-5.1,7.1-9,9.4-3.9,2.3-8.5,3.4-13.8,3.4s-9.9-1.1-13.8-3.4c-3.9-2.3-7-5.4-9.1-9.4-2.1-4-3.2-8.5-3.2-13.5s1.1-9.5,3.2-13.5Zm10.3,22c1.1,2.4,2.7,4.2,4.8,5.5,2.1,1.3,4.7,1.9,7.8,1.9s5.7-.6,7.8-1.9c2.1-1.3,3.6-3.1,4.7-5.5,1-2.4,1.5-5.2,1.5-8.5s-.5-6.2-1.5-8.5c-1-2.4-2.6-4.2-4.7-5.4-2.1-1.2-4.7-1.9-7.8-1.9s-5.7.6-7.8,1.9c-2.1,1.3-3.7,3.1-4.8,5.5s-1.6,5.2-1.6,8.5.5,6.2,1.6,8.5Z"/>
    <path class="cls-1" d="m644.2.9h21.5c4.3,0,8,.4,11.3,1.2,3.2.8,5.8,2.1,7.8,4.1,2,2,3,4.7,3,8.2s-.5,4.6-1.6,6.2c-1.1,1.6-2.4,2.7-4,3.5-1.6.8-3.3,1.3-5.3,1.7h-.5v3h5.5c2,0,3.6.6,4.6,1.8,1.1,1.2,1.6,2.9,1.6,5.1v16.1h-11.5v-17.9h-20.9v17.9h-11.6V.9Zm21.8,22.8c2.5,0,4.4-.1,5.8-.4,1.4-.3,2.5-.9,3.2-1.8.8-.9,1.2-2.3,1.2-4.2s-.4-3.4-1.3-4.3c-.8-.9-2-1.5-3.3-1.7-1.4-.2-3.4-.4-5.9-.4h-9.9v12.7h10.2Z"/>
    <polygon class="cls-1" points="736.6 .9 736.6 11 720.1 11 720.1 51.7 708.5 51.7 708.5 11 691.9 11 691.9 .9 736.6 .9"/>
    <path class="cls-1" d="m742.9.9h36.8v10h-25.2v13.3h23.4v9.7h-23.4v17.7h-11.6V.9Z"/>
    <path class="cls-1" d="m787.6,12.8c2.1-4,5.1-7.1,9.1-9.4,3.9-2.3,8.5-3.4,13.8-3.4s9.8,1.1,13.8,3.4c3.9,2.3,6.9,5.4,9,9.4,2.1,4,3.1,8.5,3.1,13.5s-1,9.6-3.1,13.5c-2.1,4-5.1,7.1-9,9.4-3.9,2.3-8.5,3.4-13.8,3.4s-9.9-1.1-13.8-3.4c-3.9-2.3-7-5.4-9.1-9.4-2.1-4-3.2-8.5-3.2-13.5s1.1-9.5,3.2-13.5Zm10.3,22c1.1,2.4,2.7,4.2,4.8,5.5,2.1,1.3,4.7,1.9,7.8,1.9s5.7-.6,7.8-1.9c2.1-1.3,3.6-3.1,4.7-5.5,1-2.4,1.5-5.2,1.5-8.5s-.5-6.2-1.5-8.5c-1-2.4-2.6-4.2-4.7-5.4-2.1-1.2-4.7-1.9-7.8-1.9s-5.7.6-7.8,1.9c-2.1,1.3-3.7,3.1-4.8,5.5s-1.6,5.2-1.6,8.5.5,6.2,1.6,8.5Z"/>
    <path class="cls-1" d="m845.1,50.1c-1.1-1.1-1.6-2.5-1.6-4.5V.9h11.6v40.6h24.6v10.2h-30c-2,0-3.5-.5-4.6-1.6Z"/>
    <polygon class="cls-1" points="907.6 11 907.6 41.5 919 41.5 919 51.7 884.5 51.7 884.5 41.5 896 41.5 896 11 884.5 11 884.5 .9 919 .9 919 11 907.6 11"/>
    <path class="cls-1" d="m925.7,12.8c2.1-4,5.1-7.1,9.1-9.4,3.9-2.3,8.5-3.4,13.8-3.4s9.8,1.1,13.8,3.4c3.9,2.3,6.9,5.4,9,9.4,2.1,4,3.1,8.5,3.1,13.5s-1,9.6-3.1,13.5c-2.1,4-5.1,7.1-9,9.4-3.9,2.3-8.5,3.4-13.8,3.4s-9.9-1.1-13.8-3.4c-3.9-2.3-7-5.4-9.1-9.4-2.1-4-3.2-8.5-3.2-13.5s1.1-9.5,3.2-13.5Zm10.3,22c1.1,2.4,2.7,4.2,4.8,5.5,2.1,1.3,4.7,1.9,7.8,1.9s5.7-.6,7.8-1.9c2.1-1.3,3.6-3.1,4.7-5.5,1-2.4,1.5-5.2,1.5-8.5s-.5-6.2-1.5-8.5c-1-2.4-2.6-4.2-4.7-5.4-2.1-1.2-4.7-1.9-7.8-1.9s-5.7.6-7.8,1.9c-2.1,1.3-3.7,3.1-4.8,5.5s-1.6,5.2-1.6,8.5.5,6.2,1.6,8.5Z"/>
  </g>
</svg>