<?xml version="1.0" encoding="UTF-8"?>
<svg id="Layer_2" data-name="Layer 2" xmlns="http://www.w3.org/2000/svg" viewBox="0 0 411 411">
  <defs>
    <style>
      .cls-1 {
        fill: #ff4949;
      }

      .cls-1, .cls-2 {
        stroke-width: 0px;
      }

      .cls-3 {
        fill: none;
        stroke: #000;
        stroke-linecap: round;
        stroke-linejoin: round;
      }
    </style>
  </defs>
  <g id="Layer_1-2" data-name="Layer 1">
    <g id="Circle_Routo">
      <g id="Smile">
        <path class="cls-1" d="m317.8,66.9c4.6-.7,9.2,1,12.4,4.4,5.1,5.7,4.7,14.5-1,19.6-2,1.9-4.5,3-7.2,3.5-4.6.7-9.2-1-12.4-4.4-5.1-5.7-4.7-14.5,1-19.6,2-1.9,4.5-3,7.2-3.5m-.2-1.1c-2.8.4-5.5,1.6-7.8,3.7-6.1,5.6-6.6,15-1,21.2,3.5,3.8,8.5,5.5,13.3,4.7,4.8-.7,5.5-1.6,7.8-3.7,6.1-5.6,6.6-15,1-21.2-3.5-3.8-8.5-5.5-13.3-4.7h0Z"/>
        <path class="cls-1" d="m328.2,89.4c-.2,0-.3-.2-.5-.2-4.7,4-11.8,3.6-16-1.1-4.2-4.6-3.9-11.7.5-16.1,0-.1-.1-.3-.2-.5,0-.2,0-.5.3-.6s.5,0,.6.3c0,.4.3.6.7.8.2.1.4.4.2.6-.1.2-.4.4-.6.2-.2,0-.3-.1-.5-.2-4.1,4-4.3,10.5-.4,14.7,3.8,4.2,10.3,4.7,14.7,1,0-.1-.1-.3-.2-.5,0-.2,0-.5.3-.6s.5,0,.6.3c0,.4.4.7.7.8.2.1.4.4.2.6-.1.2-.4.4-.6.2h0v.3Z"/>
        <path class="cls-1" d="m325.2,81.3h1.9c.3,0,.6-.2.5-.4s-.2-.5-.5-.5h-1.9c0,0,0-2,0-2,0-.3-.2-.5-.5-.5-.3,0-.6.2-.5.5v1.9c0,0-2,0-2,0-.3,0-.6.2-.5.5s0,.3.1.4.2.2.3.2h1.9c0,0,0,2,0,2,0,.1,0,.3.1.4s.2.2.3.2c.3,0,.6-.2.5-.5v-1.9c0,0,.2,0,.2,0Z"/>
        <path class="cls-1" d="m323.2,76.1c0-.3-.2-.5-.5-.5h-1.9c0,0,0-2,0-2,0-.3-.2-.5-.5-.5-.3,0-.6.2-.5.5v1.9c0,0-2,0-2,0-.3,0-.6.2-.5.5s0,.3.1.4.2.2.3.2h1.9c0,0,0,2,0,2,0,.1,0,.3.1.4s.2.2.3.2c.3,0,.6-.2.5-.5v-1.9c0,0,2,0,2,0,.3,0,.6-.2.5-.5h.1Z"/>
        <path class="cls-1" d="m58.4,105.4c-1.4-4.5-.5-9.3,2.4-12.9,4.8-6,13.6-6.9,19.5-2.1,2.1,1.7,3.7,4,4.6,6.6,1.4,4.5.5,9.3-2.4,12.9-4.8,6-13.6,6.9-19.5,2.1-2.1-1.7-3.7-4-4.6-6.6m-1,.3c.9,2.7,2.5,5.2,4.9,7.1,6.5,5.2,15.8,4.2,21.1-2.3,3.3-4,4.1-9.3,2.6-13.9s-2.5-5.2-4.9-7.1c-6.5-5.2-15.8-4.2-21.1,2.3-3.3,4-4.1,9.3-2.6,13.9h0Z"/>
        <path class="cls-1" d="m79,91.7c0,.2-.1.3-.1.5,4.7,4.1,5.4,11.1,1.4,16-3.9,4.8-10.9,5.7-16,2-.1.1-.3.2-.4.3-.2,0-.5,0-.6-.2s0-.5.2-.6c.3-.1.6-.4.7-.8,0-.3.3-.4.5-.3.3,0,.4.3.3.5,0,.2,0,.3-.1.5,4.6,3.4,11,2.6,14.6-1.9,3.6-4.4,3-10.9-1.3-14.7-.1,0-.3.2-.4.3-.2,0-.5,0-.6-.2s0-.5.2-.6c.3-.1.6-.5.7-.8,0-.3.3-.4.5-.3.3,0,.4.3.3.5h0l.3-.2Z"/>
        <path class="cls-1" d="m71.5,95.9l-.2-1.9c0-.3-.3-.5-.6-.4s-.4.3-.4.6l.2,1.9-1.9.2c-.3,0-.4.3-.4.6,0,.3.3.5.6.4l1.9-.2.2,1.9c0,.3.3.5.6.4s.3,0,.3-.2.1-.3.1-.3l-.2-1.9,1.9-.2c.1,0,.3,0,.3-.2s.1-.3.1-.3c0-.3-.3-.5-.6-.4l-1.9.2h0Z"/>
        <path class="cls-1" d="m66.6,98.6c-.3,0-.4.3-.4.6l.2,1.9-1.9.2c-.3,0-.4.3-.4.6,0,.3.3.5.6.4l1.9-.2.2,1.9c0,.3.3.5.6.4s.3,0,.3-.2.1-.3.1-.3l-.2-1.9,1.9-.2c.1,0,.3,0,.3-.2s.1-.3.1-.3c0-.3-.3-.5-.6-.4l-1.9.2-.2-1.9c0-.3-.3-.5-.6-.4h0Z"/>
        <path class="cls-1" d="m248.2,378.8c-1.7,4.4-5.4,7.6-9.9,8.6-7.5,1.7-14.9-3-16.6-10.5-.6-2.7-.4-5.4.6-8,1.7-4.4,5.4-7.6,9.9-8.6,7.5-1.7,14.9,3,16.6,10.5.6,2.7.4,5.4-.6,8m1,.4c1-2.7,1.3-5.6.6-8.6-1.9-8.1-9.8-13.1-17.9-11.3-5.1,1.1-8.9,4.7-10.7,9.2-1.7,4.5-1.3,5.6-.6,8.6,1.9,8.1,9.8,13.1,17.9,11.3,5.1-1.1,8.9-4.7,10.7-9.2h0Z"/>
        <path class="cls-1" d="m223.6,376.7c.1-.1.3-.2.4-.3-1.1-6.1,2.7-12,8.8-13.4,6.1-1.4,12.1,2.3,13.7,8.4.2,0,.3,0,.5,0,.2,0,.4.3.3.5s-.3.4-.5.3c-.3-.1-.7,0-1,.2-.2.2-.5.1-.6,0-.2-.2-.1-.5,0-.6.1-.1.2-.2.4-.3-1.5-5.5-7-8.9-12.6-7.6-5.6,1.2-9.1,6.7-8.1,12.3.1,0,.3,0,.5,0,.2,0,.4.3.3.5s-.3.4-.5.3c-.3-.1-.8,0-1,.2-.2.2-.5.1-.6,0-.2-.2-.1-.5,0-.6h-.3Z"/>
        <path class="cls-1" d="m232,378.1l-1,1.6c-.1.3,0,.6.2.7s.5,0,.7-.2l1-1.6,1.6,1c.3.1.5,0,.7-.2.1-.3,0-.6-.2-.7l-1.6-1,1-1.6c.1-.3,0-.6-.2-.7s-.3-.1-.4,0-.3.1-.3.2l-1,1.6-1.6-1c-.1,0-.3-.1-.4,0s-.3.1-.3.2c-.1.3,0,.6.2.7l1.6,1h0Z"/>
        <path class="cls-1" d="m237.6,379c.3.1.5,0,.7-.2l1-1.6,1.6,1c.3.1.5,0,.7-.2.1-.3,0-.6-.2-.7l-1.6-1,1-1.6c.1-.3,0-.6-.2-.7s-.3-.1-.4,0-.3.1-.3.2l-1,1.6-1.6-1c-.1,0-.3-.1-.4,0s-.3.1-.3.2c-.1.3,0,.6.2.7l1.6,1-1,1.6c-.1.3,0,.6.2.7h0Z"/>
      </g>
      <g id="Text">
        <polygon class="cls-2" points="140 69.7 133.6 73.8 125.3 60.6 108.8 71 117.1 84.2 110.7 88.2 90 55.4 96.4 51.4 105.2 65.3 121.6 54.9 112.9 41 119.3 36.9 140 69.7"/>
        <path class="cls-2" d="m160.1,22.4l-15.7,4.6-.2,40.4,7.7-2.2v-13.7s15.1-4.4,15.1-4.4l7.4,11.6,7.8-2.3-22-34Zm-8.2,22.1v-17.6s1.9-.6,1.9-.6l9.5,14.9-11.4,3.3Z"/>
        <path class="cls-2" d="m214.2,22.4c-1.3-2-3.2-3.3-5.7-4.1-2.5-.8-5.7-1.2-9.5-1.1l-5.8.2-7.6.2,1.1,38.8,7.6-.2-.3-11.8,5.8-.2c5.8-.2,10-1.3,12.7-3.5,2.7-2.1,4-5.6,3.9-10.5,0-3.3-.8-5.9-2.1-7.9Zm-6.5,12.3c-.7,1-1.6,1.8-2.9,2.2-1.2.4-2.9.7-4.9.7l-6.2.2-.4-13.7,6.1-.2c2,0,3.7,0,4.9.4,1.3.3,2.3,1,3,2,.7,1,1.1,2.4,1.1,4.2,0,1.8-.3,3.1-.9,4.2Z"/>
        <path class="cls-2" d="m257.8,29.8c-.8-2.2-2.3-4-4.6-5.4-2.2-1.4-5.2-2.5-9-3.3l-5.6-1.2-7.4-1.6-8.2,37.9,7.4,1.6,2.5-11.5,5.6,1.2c5.6,1.2,10,1.1,13.2-.4,3.1-1.4,5.2-4.5,6.2-9.3.7-3.2.6-5.9-.2-8.1Zm-7.4,6.5c-.4,1.7-1,3-1.9,3.9-.9.8-2,1.3-3.3,1.5-1.3.1-3,0-4.9-.4l-6-1.3,2.9-13.5,6,1.3c2,.4,3.5,1,4.7,1.6s2,1.5,2.4,2.6c.5,1.1.5,2.6.1,4.3Z"/>
        <path class="cls-2" d="m304.7,44.4l-19.5,16.2-3.6-1.7-6.9,14-6.8-3.3,6.9-14-3.6-1.7.9-25.3,7.3,3.6-1.4,23.1,1.8.9,17.5-15.2,7.4,3.6Z"/>
        <path class="cls-2" d="m358.4,94.6l14.5,23.2-5.6,3.5-10.5-16.7-9.6,6,9.6,15.3-5.5,3.4-9.6-15.3-12.2,7.7-4-6.4,32.8-20.6Z"/>
        <path class="cls-2" d="m380,132.5l4.9,15c1,3.1,1.6,5.9,1.8,8.4.2,2.5-.2,4.6-1.2,6.4-1,1.8-2.8,3.1-5.3,4-1.8.6-3.4.7-4.8.4-1.4-.3-2.6-1-3.5-1.9-.9-.9-1.8-2.1-2.5-3.4l-.2-.3-1.8.6,1.3,4c.5,1.4.4,2.6-.2,3.5-.6,1-1.6,1.7-3.1,2.2l-12.2,4-2.4-7.3,13.4-4.4-5.3-16.3-13.4,4.4-2.3-7.2,36.9-12Zm-12.1,20.8c.6,1.9,1.2,3.4,1.8,4.4.6,1,1.4,1.7,2.4,2.1s2.3.3,3.8-.2c1.6-.5,2.7-1.2,3.2-2.1.5-.9.7-1.9.6-3.1-.1-1.2-.5-2.7-1.2-4.7l-2.5-7.8-10.7,3.5,2.5,7.8v.3Z"/>
        <polygon class="cls-2" points="394.5 203.2 387.8 203.7 387.1 195.1 361.8 197.1 362.5 205.8 355.8 206.3 353.8 181.3 360.5 180.8 361.1 189.4 386.5 187.4 385.8 178.7 392.5 178.2 394.5 203.2"/>
        <path class="cls-2" d="m394.1,219.2l-4.1,28.7-6.6-.9,3.1-21.2-9.4-1.4-2.7,18.5-6.3-.9,2.7-18.5-9.5-1.4-3.1,21.2-6.6-.9,4.1-28.7,38.4,5.5Z"/>
        <path class="cls-2" d="m385.8,264.4l-6,13.8-39.2-2.1-.8,1.8,5,.7,29.3,12.8-3.1,7-35.5-15.5,6-13.9,39.2,2.1.8-1.8-5-.6-29.3-12.8,3-7,35.5,15.5Z"/>
        <path class="cls-2" d="m331.3,289l-4.9,5.8-3.9,4.7c-2.5,3-4.3,6-5.5,9-1.2,2.9-1.3,6.1-.3,9.4,1,3.3,3.5,6.6,7.5,10,4,3.3,7.7,5.2,11.1,5.5,3.4.4,6.5-.3,9.2-2,2.7-1.7,5.3-4,7.8-7l3.9-4.7,4.9-5.8-29.8-24.8Zm15.9,31.1c-1.8,2.1-3.4,3.7-5,4.8-1.5,1-3.4,1.4-5.5,1.1-2.2-.3-4.7-1.7-7.6-4.1-2.9-2.4-4.7-4.7-5.4-6.7s-.7-3.9,0-5.6c.7-1.7,2-3.6,3.8-5.8l3.9-4.7,19.6,16.3-3.9,4.7Z"/>
        <path class="cls-2" d="m303.9,321c1,.2,2,.8,2.8,1.9l20.5,27.7-6.1,4.5-19.1-25.8-15.3,11.3-4-5.4,18-13.3c1.1-.8,2.2-1.2,3.2-1Z"/>
        <path class="cls-2" d="m270.6,384l-.7-25.4,3.6-1.7-6.8-14.1,6.8-3.3,6.8,14.1,3.6-1.7,19.3,16.4-7.3,3.5-17.3-15.4-1.8.9,1.2,23.1-7.4,3.5Z"/>
        <path class="cls-2" d="m169.3,354.6c2.9-1.6,7.2-2,12.6-1.2,6.2.9,10.7,2.9,13.3,6,2.7,3.1,3.6,7.1,2.9,12.1l-7.7-1.1c.3-2.1.2-3.9-.4-5.3-.5-1.4-1.6-2.6-3.1-3.5-1.5-.9-3.5-1.5-6.1-1.9-2.8-.4-5-.3-6.4.2-1.5.6-2.3,1.7-2.5,3.3-.2,1.1,0,2.1.8,3,.7.9,1.8,1.7,3.4,2.3l11.3,4.9c2.9,1.3,4.9,2.9,6,4.8,1.1,1.9,1.5,4.1,1.1,6.6-.5,3.5-2.2,6-5,7.5-2.8,1.5-6.6,1.9-11.3,1.2-3.7-.5-6.7-1.6-9.1-3-2.4-1.5-4-3.3-5-5.6-1-2.2-1.3-4.8-.9-7.5l7.8,1.2c-.4,2.5,0,4.5,1.4,5.9,1.3,1.4,3.5,2.4,6.6,2.8,2.3.3,4.1.2,5.4-.3,1.3-.6,2-1.6,2.2-3,.1-1,0-1.9-.6-2.6s-1.6-1.5-3.1-2.1l-11.2-4.6c-3-1.3-5.1-2.9-6.4-4.9-1.3-2-1.7-4.4-1.3-7.1.5-3.6,2.3-6.3,5.2-7.9Z"/>
        <path class="cls-2" d="m146.9,376.8c-2.7,2.1-5.7,3.4-9.1,3.7-3.4.4-6.9-.2-10.5-1.9-3.6-1.6-6.3-3.8-8.3-6.6-2-2.8-3-5.9-3.2-9.3-.2-3.4.5-6.9,2.1-10.3,1.6-3.5,3.7-6.3,6.4-8.5,2.7-2.1,5.7-3.4,9.1-3.8,3.4-.4,6.9.2,10.4,1.9,3.6,1.6,6.4,3.8,8.3,6.6,2,2.8,3,5.9,3.2,9.3.2,3.4-.5,6.9-2.1,10.4-1.6,3.5-3.7,6.3-6.4,8.4Zm.9-18.6c0-2.1-.5-4.1-1.6-5.8-1.1-1.7-2.8-3.1-5.1-4.1-2.3-1-4.5-1.4-6.5-1.1-2,.3-3.8,1.2-5.4,2.6s-2.9,3.4-4,5.9c-1.1,2.5-1.7,4.8-1.7,6.9,0,2.1.5,4.1,1.6,5.7,1.1,1.7,2.8,3.1,5.1,4.1,2.3,1.1,4.5,1.4,6.5,1.2,2-.3,3.8-1.2,5.4-2.6,1.6-1.4,3-3.4,4.1-5.8,1.1-2.5,1.7-4.8,1.7-6.9Z"/>
        <path class="cls-2" d="m113.1,327c1.1,3.3,1.2,6.5.4,9.9-.8,3.3-2.5,6.5-5,9.4-2.5,2.9-5.4,4.9-8.6,6.2-3.2,1.2-6.5,1.6-9.9.9-3.4-.6-6.5-2.2-9.5-4.8-2.7-2.3-4.6-4.9-5.8-7.6-1.2-2.7-1.6-5.5-1.3-8.3.3-2.8,1.4-5.6,3.2-8.3l5.9,5.2c-1.5,2.3-2,4.7-1.6,7.1.4,2.4,1.8,4.6,4.1,6.6,1.8,1.6,3.7,2.6,5.7,2.9,2,.4,4,0,6-.8,2-.9,3.9-2.4,5.7-4.5,1.9-2.1,3.1-4.2,3.7-6.3.6-2.1.6-4.1,0-6-.6-1.9-1.9-3.7-3.7-5.3-2.3-2-4.7-3-7.2-3.1-2.5,0-4.8.8-6.9,2.6l-5.9-5.2c2.4-2.2,5-3.6,7.8-4.4,2.8-.7,5.6-.7,8.4.1,2.8.8,5.6,2.4,8.3,4.7,3,2.6,5,5.5,6.1,8.7Z"/>
        <polygon class="cls-2" points="90.3 303 84.9 306.8 79.8 299.8 59.1 314.5 64.1 321.6 58.7 325.5 44.1 305 49.6 301.2 54.6 308.3 75.4 293.5 70.3 286.4 75.7 282.6 90.3 303"/>
        <path class="cls-2" d="m70,271.8l-13.7,1.3-5.8-14.6,10.9-8.4-3-7.5-31.8,25,6,15.2,40.3-3.5-2.9-7.4Zm-38.2,3.5l-.7-1.8,14-10.8,4.3,11-17.6,1.6Z"/>
        <path class="cls-2" d="m19.3,242l-1.6-14.9c-.4-3.6-.4-6.6-.1-8.9.3-2.3,1.1-4.1,2.3-5.4s3.1-2.1,5.5-2.3c1.9-.2,3.4,0,4.6.6,1.2.6,2.1,1.4,2.8,2.4.6,1,1.1,2.3,1.4,3.9.1.4.2.7.2.9l1.9-.2c0-.3,0-.5,0-.7-.1-2.3,0-4.2.3-5.7.4-1.5,1.1-2.9,2.3-4,1.2-1.1,2.9-1.8,5.2-2,2.7-.3,4.9.2,6.6,1.4,1.7,1.2,2.9,3.1,3.8,5.5.8,2.4,1.5,5.4,1.9,9.1l1.7,16.2-38.6,4.1Zm13.6-18.7c-.2-1.3-.4-2.4-.8-3.2-.3-.8-.9-1.4-1.6-1.8-.7-.4-1.7-.5-2.9-.4-1.4.1-2.4.5-3,1.1-.6.6-.9,1.4-1.1,2.3-.1,1,0,2.3.1,3.9v.6c0,0,.9,8,.9,8l9.3-1-.9-8c0-.7-.1-1.2-.2-1.5Zm16.5-2.9c-.2-1.8-.5-3.2-.9-4.2-.4-1-1-1.7-1.8-2.2-.8-.5-1.9-.7-3.3-.5s-2.3.5-3,1.2-1.2,1.4-1.4,2.4c-.2,1-.3,2.3-.2,3.9,0,.8.2,1.5.2,2.1l1,9,10.6-1.1-1-9c0-.7-.1-1.2-.2-1.6Z"/>
        <path class="cls-2" d="m54,197.3c-.8.6-1.9.9-3.3.7l-34.2-4.4,1-7.5,31.9,4.1,2.4-18.9,6.6.9-2.9,22.1c-.2,1.4-.7,2.4-1.5,3Z"/>
        <path class="cls-2" d="m23.3,153.7l10-27.2,6.2,2.3-7.4,20.1,8.9,3.3,6.4-17.5,6,2.2-6.4,17.5,9,3.3,7.4-20.1,6.2,2.3-10,27.2-36.4-13.4Z"/>
      </g>
    </g>
    <circle class="cls-3" cx="205.5" cy="205.5" r="205"/>
    <circle class="cls-3" cx="205.5" cy="205.5" r="140"/>
  </g>
</svg>