<?xml version="1.0" encoding="UTF-8"?>
<svg id="Layer_2" data-name="Layer 2" xmlns="http://www.w3.org/2000/svg" viewBox="0 0 755.3 52.8">
  <defs>
    <style>
      .cls-1 {
        fill: #231f20;
      }
    </style>
  </defs>
  <g id="Layer_1-2" data-name="Layer 1">
    <path class="cls-1" d="m42.8,48.6c-3.7,2.8-9.5,4.2-17.4,4.2s-15.2-1.8-19.3-5.3c-4.1-3.5-6.2-8.7-6.2-15.4h13.5c0,2.4.4,4.3,1.1,5.7.7,1.4,2,2.4,3.7,3.1,1.8.6,4.2,1,7.3,1s5.6-.3,7-1c1.5-.7,2.2-1.8,2.2-3.4s-.4-1.7-1.1-2.3c-.7-.6-1.8-1.2-3.2-1.5l-17-4.5c-4.2-1.1-7.1-2.8-8.9-5.2-1.8-2.4-2.6-5.3-2.6-8.7,0-4.9,1.8-8.7,5.3-11.3C11,1.3,16.1,0,22.8,0s9.6.8,13.1,2.3c3.6,1.5,6.2,3.7,8,6.4,1.8,2.8,2.7,6,2.7,9.7h-13.5c0-2.7-.8-4.6-2.4-5.9-1.6-1.2-4.1-1.8-7.6-1.8s-4.3.3-5.5,1c-1.2.7-1.8,1.7-1.8,3.1s.3,1.5.8,2.1c.6.6,1.6,1.1,3.1,1.4l16.5,4.1c4.2,1.1,7.3,2.8,9.3,5.2,2,2.4,3,5.4,3,9.1s-1.9,9-5.6,11.8Z"/>
    <path class="cls-1" d="m54.4,1h40.3v11.4h-27.2v8.5h23.6v10.8h-23.6v8.6h27.2v11.4h-40.3V1Z"/>
    <path class="cls-1" d="m111.5,49.4c-4.1-2.3-7.2-5.4-9.4-9.4-2.2-4-3.3-8.5-3.3-13.6s1.1-9.5,3.3-13.5c2.2-4,5.3-7.2,9.4-9.4,4.1-2.3,8.8-3.4,14.3-3.4s9,.8,12.7,2.5c3.7,1.7,6.7,4,8.9,7.1,2.3,3.1,3.6,6.8,4.1,11h-13.5c-.5-2.7-1.9-4.8-4.1-6.4-2.2-1.6-4.9-2.4-8.1-2.4s-5,.5-7,1.6c-2,1.1-3.6,2.7-4.7,4.8-1.1,2.2-1.7,4.9-1.7,8.1s.6,6,1.7,8.1c1.1,2.2,2.7,3.8,4.7,4.8,2,1.1,4.3,1.6,7,1.6s5.9-.8,8.1-2.4c2.2-1.6,3.5-3.7,4.1-6.4h13.5c-.5,4.2-1.8,7.9-4.1,11-2.3,3.1-5.2,5.5-8.9,7.2-3.7,1.7-7.9,2.5-12.7,2.5s-10.2-1.1-14.3-3.4Z"/>
    <path class="cls-1" d="m159.1,50.1c-1.2-1.1-1.7-2.8-1.7-4.9V1h13v39.3h24.4v11.4h-30.8c-2.1,0-3.7-.6-4.9-1.7Z"/>
    <path class="cls-1" d="m199.6,1h40.3v11.4h-27.2v8.5h23.6v10.8h-23.6v8.6h27.2v11.4h-40.3V1Z"/>
    <path class="cls-1" d="m256.6,49.4c-4.1-2.3-7.2-5.4-9.4-9.4-2.2-4-3.3-8.5-3.3-13.6s1.1-9.5,3.3-13.5c2.2-4,5.3-7.2,9.4-9.4,4.1-2.3,8.8-3.4,14.3-3.4s9,.8,12.7,2.5c3.7,1.7,6.7,4,8.9,7.1,2.3,3.1,3.6,6.8,4.1,11h-13.5c-.5-2.7-1.9-4.8-4.1-6.4-2.2-1.6-4.9-2.4-8.1-2.4s-5,.5-7,1.6c-2,1.1-3.6,2.7-4.7,4.8-1.1,2.2-1.7,4.9-1.7,8.1s.6,6,1.7,8.1c1.1,2.2,2.7,3.8,4.7,4.8,2,1.1,4.3,1.6,7,1.6s5.9-.8,8.1-2.4c2.2-1.6,3.5-3.7,4.1-6.4h13.5c-.5,4.2-1.8,7.9-4.1,11-2.3,3.1-5.2,5.5-8.9,7.2-3.7,1.7-7.9,2.5-12.7,2.5s-10.2-1.1-14.3-3.4Z"/>
    <path class="cls-1" d="m343.9,1v11.4h-45.7V1h45.7Zm-16.3,1.4v49.3h-13.1V2.4h13.1Z"/>
    <path class="cls-1" d="m349.7,1h40.3v11.4h-27.2v8.5h23.6v10.8h-23.6v8.6h27.2v11.4h-40.3V1Z"/>
    <path class="cls-1" d="m397.5,1h13v50.8h-13V1Zm27.8,38.5c2-.5,3.6-1.8,4.8-3.8,1.2-2,1.8-5.1,1.8-9.4s-.6-7.4-1.9-9.4c-1.2-2-2.9-3.2-4.9-3.7-2-.5-4.8-.8-8.4-.8h-6.3V1h6.3c5.4,0,10.1.6,14.3,1.9,4.1,1.3,7.5,3.8,10.1,7.6,2.6,3.7,3.9,9,3.9,15.8s-1.3,12.2-3.9,15.9c-2.6,3.7-6,6.3-10.1,7.6-4.1,1.3-8.9,1.9-14.3,1.9h-6.3v-11.4h6.3c3.6,0,6.5-.3,8.5-.8Z"/>
    <path class="cls-1" d="m536,51.8h-25.3l-3.5-47.5h-3l-3.5,47.5h-25.5l-6.8-50.8h13.1l5.2,38.2-.9,9.4h3.2l3.5-47.5h26.6l3.4,47.5h3.2l-.8-9.3,5-38.2h13.1l-6.8,50.8Z"/>
    <path class="cls-1" d="m549.4,12.9c2.2-4,5.3-7.2,9.3-9.4,4-2.3,8.8-3.4,14.2-3.4s10.1,1.1,14.1,3.4c4,2.3,7.1,5.4,9.3,9.4,2.2,4,3.2,8.5,3.2,13.5s-1.1,9.6-3.2,13.6c-2.2,4-5.3,7.2-9.3,9.4-4,2.3-8.7,3.4-14.1,3.4s-10.2-1.1-14.2-3.4c-4-2.3-7.1-5.4-9.3-9.4-2.2-4-3.2-8.5-3.2-13.6s1.1-9.5,3.2-13.5Z"/>
    <path class="cls-1" d="m605.7,1h22.3c4.3,0,8.2.4,11.5,1.1,3.4.7,6.1,2.1,8.2,4.1,2.1,2,3.1,4.7,3.1,8.2s-.6,4.6-1.7,6.2c-1.2,1.6-2.6,2.7-4.2,3.5-1.7.7-3.5,1.3-5.3,1.6h-.4v3.2h5.5c2.1,0,3.8.7,5,2,1.2,1.3,1.8,3.2,1.8,5.5v15.3h-13v-17.2h-19.5v17.2h-13.1V1Zm22.7,22.2c2.4,0,4.1-.1,5.3-.3,1.2-.2,2.2-.7,2.9-1.5.7-.8,1.1-2,1.1-3.6s-.4-2.8-1.2-3.6c-.8-.8-1.9-1.2-3.1-1.4-1.3-.2-3.1-.3-5.4-.3h-9.2v10.7h9.6Z"/>
    <path class="cls-1" d="m658.4,1h13v19.4h2.8l16.5-19.4h15.8l-24.5,28.4-.4-8.8,25.3,31.2h-16.5l-16.4-21.2h-2.6v21.2h-13V1Z"/>
    <path class="cls-1" d="m749.7,48.6c-3.7,2.8-9.5,4.2-17.4,4.2s-15.2-1.8-19.3-5.3c-4.1-3.5-6.2-8.7-6.2-15.4h13.5c0,2.4.4,4.3,1.1,5.7.7,1.4,2,2.4,3.7,3.1,1.8.6,4.2,1,7.3,1s5.6-.3,7-1c1.5-.7,2.2-1.8,2.2-3.4s-.4-1.7-1.1-2.3c-.7-.6-1.8-1.2-3.2-1.5l-17-4.5c-4.2-1.1-7.1-2.8-8.9-5.2-1.8-2.4-2.6-5.3-2.6-8.7,0-4.9,1.8-8.7,5.3-11.3,3.6-2.6,8.7-3.9,15.3-3.9s9.6.8,13.1,2.3c3.6,1.5,6.2,3.7,8,6.4,1.8,2.8,2.7,6,2.7,9.7h-13.5c0-2.7-.8-4.6-2.4-5.9-1.6-1.2-4.1-1.8-7.6-1.8s-4.3.3-5.5,1c-1.2.7-1.8,1.7-1.8,3.1s.3,1.5.8,2.1c.6.6,1.6,1.1,3.1,1.4l16.5,4.1c4.2,1.1,7.3,2.8,9.3,5.2,2,2.4,3,5.4,3,9.1s-1.9,9-5.6,11.8Z"/>
  </g>
</svg>