<?xml version="1.0" encoding="UTF-8"?>
<svg id="Layer_2" data-name="Layer 2" xmlns="http://www.w3.org/2000/svg" viewBox="0 0 81.2 81.2">
  <defs>
    <style>
      .cls-1 {
        fill: #ff4949;
      }

      .cls-1, .cls-2 {
        stroke-width: 0px;
      }

      .cls-2 {
        fill: #353535;
      }
    </style>
  </defs>
  <g id="Layer_5" data-name="Layer 5">
    <g>
      <path class="cls-1" d="m40.6,79.7c-18.7,0-34.8-13.3-38.4-31.7-2-10.2.2-20.6,6-29.3C14.1,10,23,4.2,33.2,2.2c2.4-.5,4.9-.7,7.4-.7,18.7,0,34.8,13.3,38.4,31.7,4.1,21.2-9.8,41.7-31,45.8-2.4.5-4.9.7-7.4.7Zm0-62.3c-1.5,0-2.9.1-4.4.4-6.1,1.2-11.3,4.6-14.8,9.8-3.5,5.1-4.7,11.3-3.6,17.4,2.1,10.9,11.7,18.8,22.8,18.8h0c1.5,0,2.9-.1,4.4-.4,6.1-1.2,11.3-4.6,14.8-9.8,3.5-5.1,4.7-11.3,3.6-17.4-2.1-10.9-11.7-18.8-22.8-18.8Z"/>
      <path class="cls-2" d="m40.6,3c17.6,0,33.4,12.5,36.9,30.5,3.9,20.4-9.4,40.1-29.8,44-2.4.5-4.8.7-7.1.7-17.6,0-33.4-12.5-36.9-30.5C-.2,27.4,13.1,7.6,33.5,3.7c2.4-.5,4.8-.7,7.1-.7m0,62.3c1.5,0,3.1-.1,4.7-.4,13.4-2.6,22.1-15.6,19.6-28.9-2.3-11.8-12.6-20-24.2-20s-3.1.1-4.7.4c-13.4,2.6-22.1,15.6-19.6,28.9,2.3,11.8,12.6,20,24.2,20m0-65.3h0c-2.6,0-5.2.2-7.7.7C22.3,2.8,13.1,8.9,7,17.9.9,26.9-1.3,37.7.7,48.3c3.7,19.1,20.4,32.9,39.8,32.9s5.2-.2,7.7-.7c10.6-2.1,19.8-8.1,25.9-17.1,6.1-9,8.3-19.8,6.2-30.4C76.8,13.8,60,0,40.6,0h0Zm0,62.3c-10.4,0-19.3-7.4-21.3-17.6-2.3-11.7,5.4-23.1,17.2-25.4,1.4-.3,2.7-.4,4.1-.4,10.4,0,19.3,7.4,21.3,17.6,2.3,11.7-5.4,23.1-17.2,25.4-1.4.3-2.7.4-4.1.4h0Z"/>
    </g>
  </g>
</svg>