<?xml version="1.0" encoding="UTF-8"?>
<svg id="Layer_2" data-name="Layer 2" xmlns="http://www.w3.org/2000/svg" viewBox="0 0 763.2 63.3">
  <defs>
    <style>
      .cls-1 {
        fill: #231f20;
      }
    </style>
  </defs>
  <g id="Layer_1-2" data-name="Layer 1">
    <path class="cls-1" d="m50.2,58.4c-4.3,3.3-11.1,4.9-20.2,4.9s-17.8-2.1-22.7-6.3C2.5,52.8,0,46.6,0,38.6h14.4c0,3.1.5,5.6,1.5,7.5,1,1.9,2.7,3.3,5,4.2,2.3.9,5.5,1.3,9.5,1.3s7.3-.5,9.2-1.6c1.9-1,2.9-2.7,2.9-4.9s-.5-2.7-1.6-3.6c-1.1-1-2.6-1.8-4.7-2.3l-19.7-5.2c-4.8-1.3-8.4-3.4-10.5-6.1-2.2-2.7-3.2-6.2-3.2-10.3s2.1-10.1,6.2-13.1C13,1.5,19,0,26.8,0s11.2.9,15.3,2.6c4.2,1.8,7.3,4.3,9.4,7.6,2.1,3.3,3.1,7.2,3.1,11.6h-14.3c0-3.6-1.1-6.3-3.3-8-2.2-1.7-5.5-2.5-10-2.5s-5.8.5-7.4,1.4c-1.7,1-2.5,2.5-2.5,4.5s.4,2.3,1.3,3.2c.9.9,2.4,1.6,4.5,2.2l19.2,4.8c4.9,1.3,8.6,3.3,11,6.2,2.5,2.9,3.7,6.5,3.7,10.9s-2.2,10.5-6.5,13.8Z"/>
    <path class="cls-1" d="m64.5,1.1h47v12.1h-33.1v12.6h28.7v11.4h-28.7v12.7h33.1v12.1h-47V1.1Z"/>
    <path class="cls-1" d="m131.9,59.2c-4.7-2.7-8.4-6.5-11-11.3-2.6-4.8-3.9-10.2-3.9-16.3s1.3-11.4,3.9-16.2c2.6-4.8,6.2-8.6,11-11.3,4.8-2.7,10.3-4.1,16.7-4.1s10.7,1,15,3c4.3,2,7.8,4.8,10.4,8.5,2.6,3.7,4.2,8.1,4.8,13.2h-14.3c-.6-3.8-2.4-6.8-5.2-8.9-2.8-2.1-6.3-3.2-10.6-3.2s-6.6.7-9.2,2.1c-2.6,1.4-4.6,3.6-6.1,6.5-1.4,2.9-2.1,6.4-2.1,10.5s.7,7.7,2.1,10.5c1.4,2.9,3.4,5,6.1,6.5,2.6,1.4,5.7,2.2,9.2,2.2s7.8-1.1,10.6-3.2c2.8-2.2,4.5-5.2,5.2-9h14.3c-.6,5.1-2.2,9.5-4.8,13.2-2.6,3.7-6.1,6.6-10.4,8.6-4.3,2-9.3,3-15,3s-12-1.4-16.7-4.1Z"/>
    <path class="cls-1" d="m188.9,60.3c-1.3-1.3-1.9-3.1-1.9-5.4V1.1h13.9v48.8h29.6v12.2h-36.1c-2.4,0-4.2-.6-5.5-1.9Z"/>
    <path class="cls-1" d="m276.4,1.1v12.1h-53.8V1.1h53.8Zm-19.9,1.7v59.3h-13.9V2.9h13.9Z"/>
    <path class="cls-1" d="m283.9,1.1h47v12.1h-33.1v12.6h28.7v11.4h-28.7v12.7h33.1v12.1h-47V1.1Z"/>
    <path class="cls-1" d="m340.4,1.1h13.9v61h-13.9V1.1Zm33,47.8c2.6-.7,4.7-2.3,6.3-5,1.6-2.7,2.5-6.8,2.5-12.4s-.8-9.7-2.5-12.3c-1.7-2.6-3.8-4.3-6.4-5-2.6-.7-6.1-1-10.5-1h-8.5V1.1h8.5c6.3,0,11.9.8,16.7,2.3,4.8,1.6,8.8,4.6,11.9,9.1,3.1,4.5,4.7,10.9,4.7,19s-1.6,14.6-4.7,19.1c-3.1,4.5-7.1,7.5-11.9,9.1-4.8,1.6-10.4,2.3-16.7,2.3h-8.5v-12.2h8.5c4.5,0,8-.3,10.6-1Z"/>
    <path class="cls-1" d="m503.1,62.2h-27l-5.6-57.6h-3.4l-5.5,57.6h-27.2l-8.8-61h13.9l7.1,47.4-1,10.1h3.4l5.6-57.6h28.3l5.6,57.6h3.5l-.9-10,6.9-47.5h13.8l-8.7,61Z"/>
    <path class="cls-1" d="m520.1,15.4c2.5-4.8,6.2-8.6,10.9-11.3,4.7-2.7,10.3-4.1,16.6-4.1s11.8,1.4,16.5,4.1c4.7,2.7,8.4,6.5,10.9,11.3,2.5,4.8,3.8,10.2,3.8,16.2s-1.3,11.5-3.8,16.3c-2.5,4.8-6.1,8.6-10.9,11.3-4.7,2.7-10.2,4.1-16.5,4.1s-11.9-1.4-16.6-4.1c-4.7-2.7-8.4-6.5-10.9-11.3-2.5-4.8-3.8-10.2-3.8-16.3s1.3-11.4,3.8-16.2Z"/>
    <path class="cls-1" d="m587.3,1.1h25.9c5.1,0,9.7.5,13.5,1.4,3.9.9,7,2.6,9.4,5,2.4,2.4,3.5,5.7,3.5,9.9s-.6,5.5-1.9,7.4c-1.3,1.9-2.9,3.3-4.8,4.2-1.9.9-4,1.6-6.3,2h-.6v3.5h6.6c2.4,0,4.3.7,5.6,2.2,1.3,1.4,1.9,3.5,1.9,6.1v19.3h-13.9v-21.5h-25.1v21.5h-13.9V1.1Zm26.2,27.4c3,0,5.3-.2,7-.5,1.7-.3,3-1.1,3.9-2.2.9-1.1,1.4-2.8,1.4-5s-.5-4.1-1.5-5.2c-1-1.1-2.4-1.7-4-2-1.7-.3-4-.4-7.1-.4h-11.9v15.3h12.3Z"/>
    <path class="cls-1" d="m649.6,1.1h13.9v24.2h3.5l21.2-24.2h16.9l-29.6,33.4-.4-8.8,30.6,36.5h-17.7l-21.1-26h-3.4v26h-13.9V1.1Z"/>
    <path class="cls-1" d="m756.7,58.4c-4.3,3.3-11.1,4.9-20.2,4.9s-17.8-2.1-22.7-6.3c-4.9-4.2-7.4-10.3-7.4-18.4h14.4c0,3.1.5,5.6,1.5,7.5,1,1.9,2.7,3.3,5,4.2,2.3.9,5.5,1.3,9.5,1.3s7.3-.5,9.2-1.6c1.9-1,2.9-2.7,2.9-4.9s-.5-2.7-1.6-3.6c-1.1-1-2.6-1.8-4.7-2.3l-19.7-5.2c-4.8-1.3-8.4-3.4-10.5-6.1-2.2-2.7-3.2-6.2-3.2-10.3s2.1-10.1,6.2-13.1c4.2-3,10.1-4.5,17.9-4.5s11.2.9,15.3,2.6c4.2,1.8,7.3,4.3,9.4,7.6,2.1,3.3,3.1,7.2,3.1,11.6h-14.3c0-3.6-1.1-6.3-3.3-8-2.2-1.7-5.5-2.5-10-2.5s-5.8.5-7.4,1.4c-1.7,1-2.5,2.5-2.5,4.5s.4,2.3,1.3,3.2c.9.9,2.4,1.6,4.5,2.2l19.2,4.8c4.9,1.3,8.6,3.3,11,6.2,2.5,2.9,3.7,6.5,3.7,10.9s-2.2,10.5-6.5,13.8Z"/>
  </g>
</svg>