<?xml version="1.0" encoding="UTF-8"?>
<svg id="Layer_2" data-name="Layer 2" xmlns="http://www.w3.org/2000/svg" viewBox="0 0 120.2 85.6">
  <defs>
    <style>
      .cls-1 {
        fill: #ff4949;
      }

      .cls-1, .cls-2 {
        stroke-width: 0px;
      }

      .cls-2 {
        fill: #353535;
      }
    </style>
  </defs>
  <g id="Layer_5" data-name="Layer 5">
    <g>
      <path class="cls-1" d="m90.7,84.1c-3.3,0-6.3-2.5-7.1-5.8-.7-3,.6-5.7,3.4-7.1,1.1-.6,2.3-1.1,3.6-1.7,6.1-2.8,13.1-5.9,14.1-12,.7-3.8-2.3-7.4-5.5-8.9-1.5-.7-3.2-1.1-5-1.1-2.6,0-5.5.7-8.7,2.2-6.1,2.8-12,6.8-17.6,10.8-9.3,6.5-19,13.3-30.7,14.8-1.3.2-2.6.3-3.8.3-6.9,0-12.1-2.6-14.7-7.3-3-5.5-2.2-13,2.4-22.8,2.5-5.3,6.5-9.5,10.5-13.6,4.2-4.4,8.2-8.6,10.4-14,.5-1.2.5-1.8.3-2.1,0,0-.4-.5-2.2-.5s-3,.2-4.4.5c-.5,0-1.1.2-1.5.2-8,1-14.9,3.9-22.3,9.5-1.2.9-2.5,1.4-3.8,1.4-2.7,0-5.1-2-6.1-4.9-1.1-3.2,0-6.4,2.5-8.3C13.4,6.8,22.6,3.2,34.5,1.8c1.8-.2,3.5-.3,5.1-.3,11.4,0,15.2,5.6,16.4,10.2,2.9,11.3-6.6,21.4-14.2,29.5-2.4,2.5-4.6,4.9-6.3,7.1-1.7,2.2-2.9,4.8-3.9,8.3-.4,1.6-1.1,3.8-.6,4.4.1.2.6.5,2.3.6h.3c7.8,0,15.6-5.3,22.5-10,1.1-.8,2.2-1.5,3.2-2.2l1.1-.8c9.6-6.4,22.7-15.1,34.9-15.1s13.4,3.1,18.3,9.1c6.1,7.5,6.5,17.6,1.2,25.8-4.3,6.7-11.3,10-18.1,13.3-1,.5-2,1-3,1.4-1,.5-2.1.8-3.2.8h0Z"/>
      <path class="cls-2" d="m39.6,3c6.5,0,13.1,1.9,15,9.1,3.6,13.8-13.1,26-20.3,35.4-2,2.6-3.2,5.6-4.1,8.8-1.1,4.1-1.8,6.8,3.1,6.9.1,0,.2,0,.3,0,9.6,0,18.9-7.4,26.6-12.4,9.8-6.5,23-15.6,35.2-15.6s12.1,2.4,17.2,8.6c5.7,7,6,16.5,1.1,24-4.7,7.3-13,10.5-20.5,14.2-.9.4-1.7.6-2.6.6-5.1,0-8.4-7.4-3-10.1,6.5-3.2,17.1-6.5,18.5-14.8.8-4.5-2.4-8.7-6.3-10.5-1.8-.8-3.7-1.2-5.6-1.2-3.2,0-6.4,1-9.4,2.3-16.3,7.3-29.4,23.1-47.9,25.5-1.2.2-2.4.2-3.6.2-5.3,0-10.7-1.6-13.4-6.6-3.5-6.5-.5-15.3,2.4-21.4,5-10.5,16.5-16.9,20.9-27.8,1.5-3.7-.5-4.6-3.3-4.6s-4.4.5-6.1.7c-8.8,1.1-15.9,4.5-23,9.8-1,.7-2,1.1-2.9,1.1-4.3,0-7.2-7.1-2.6-10.5C14.3,8,23.6,4.6,34.7,3.3c1.6-.2,3.3-.3,5-.3M39.6,0v3V0c-1.6,0-3.4.1-5.3.3C22.2,1.8,12.7,5.4,3.5,12.3.4,14.6-.8,18.5.5,22.2c1.2,3.5,4.2,5.9,7.5,5.9s3.2-.6,4.7-1.6c7.2-5.4,13.9-8.2,21.6-9.2.5,0,1-.1,1.6-.2,1.4-.2,2.9-.4,4.2-.4s.5,0,.7,0c0,.1,0,.3-.2.5-2.1,5.1-6,9.2-10.1,13.6-4,4.2-8.1,8.5-10.7,14-4.8,10.3-5.6,18.2-2.3,24.1,2.9,5.2,8.6,8.1,16,8.1s2.7,0,4-.3c12.1-1.6,21.9-8.4,31.4-15.1,5.8-4.1,11.4-8,17.4-10.7,3-1.3,5.7-2,8.1-2s3,.3,4.3.9c2.7,1.3,5.2,4.2,4.7,7.3-.9,5.4-7.5,8.3-13.3,10.9-1.3.6-2.5,1.1-3.6,1.7-3.4,1.7-5.1,5.1-4.2,8.8,1,4.1,4.5,7,8.5,7s2.6-.3,3.9-.9c1-.5,2-1,3-1.4,6.9-3.3,14.1-6.8,18.7-13.8,5.7-8.8,5.2-19.6-1.3-27.6-5.2-6.4-11.8-9.7-19.5-9.7-12.6,0-26,8.9-35.7,15.3l-1.1.8c-1,.7-2.1,1.4-3.2,2.2-6.7,4.6-14.3,9.8-21.7,9.8h-.3c-.5,0-.8,0-1,0,0-.8.5-2.2.7-3,.9-3.3,2.1-5.7,3.6-7.8,1.6-2.1,3.9-4.5,6.2-7,7.9-8.4,17.7-18.9,14.6-31C56.1,6.2,51.9,0,39.6,0h0Z"/>
    </g>
  </g>
</svg>