<?xml version="1.0" encoding="UTF-8"?>
<svg id="Layer_2" data-name="Layer 2" xmlns="http://www.w3.org/2000/svg" viewBox="0 0 126.2 57.7">
  <defs>
    <style>
      .cls-1 {
        fill: #00a167;
      }

      .cls-1, .cls-2 {
        stroke-width: 0px;
      }

      .cls-2 {
        fill: #353535;
      }
    </style>
  </defs>
  <g id="Layer_5" data-name="Layer 5">
    <g>
      <polygon class="cls-1" points="100.5 39.6 78 47.8 63.2 29 40.7 37.2 25.8 18.4 6.7 25.3 1.9 12.2 30.6 1.8 45.4 20.6 67.9 12.4 82.7 31.2 105.2 23 124.1 46.9 113.1 55.6 100.5 39.6"/>
      <path class="cls-2" d="m30.1,3.6l14.8,18.8,22.5-8.2,14.8,18.8,22.5-8.2,17.3,21.9-8.6,6.8-12.4-15.7-22.5,8.2-14.8-18.8-22.5,8.2-14.8-18.8-18.8,6.8-3.7-10.3L30.1,3.6m1-3.6l-2,.7L2.8,10.2l-2.8,1,1,2.8,3.7,10.3,1,2.8,2.8-1,16.7-6.1,13.5,17.1,1.3,1.7,2-.7,20.5-7.4,13.5,17.1,1.3,1.7,2-.7,20.5-7.4,11,14,1.9,2.4,2.4-1.9,8.6-6.8,2.4-1.9-1.9-2.4-17.3-21.9-1.3-1.7-2,.7-20.5,7.4-13.5-17.1-1.3-1.7-2,.7-20.5,7.4L32.4,1.7l-1.3-1.7h0Z"/>
    </g>
  </g>
</svg>