<?xml version="1.0" encoding="UTF-8"?>
<svg id="Layer_2" data-name="Layer 2" xmlns="http://www.w3.org/2000/svg" viewBox="0 0 112.5 82.7">
  <defs>
    <style>
      .cls-1 {
        fill: #0073c6;
      }

      .cls-1, .cls-2 {
        stroke-width: 0px;
      }

      .cls-2 {
        fill: #353535;
      }
    </style>
  </defs>
  <g id="Layer_5" data-name="Layer 5">
    <g>
      <path class="cls-1" d="m82.8,71.1l.6-1.4c6.5-15.9-1-34.1-16.9-40.6-3.8-1.6-7.8-2.4-11.8-2.4-12.7,0-24,7.6-28.8,19.2l-.6,1.4L2,37.7l.6-1.4C11.3,15.2,31.7,1.5,54.7,1.5s14.6,1.4,21.4,4.3c28.7,11.9,42.4,44.9,30.6,73.6l-.6,1.4-23.3-9.6Z"/>
      <path class="cls-2" d="m54.7,3c7,0,14,1.3,20.9,4.1,28,11.5,41.3,43.7,29.8,71.6l-20.6-8.5c6.9-16.6-1.1-35.7-17.7-42.6-4.1-1.7-8.3-2.5-12.4-2.5-12.8,0-25,7.6-30.2,20.2L3.9,36.9C12.6,15.8,33.1,3,54.7,3m0-3v3V0h0C31.1,0,10.1,14,1.1,35.8l-1.1,2.8,2.8,1.1,20.6,8.5,2.8,1.1,1.1-2.8c4.6-11.1,15.3-18.3,27.4-18.3,3.9,0,7.7.8,11.3,2.2,7.3,3,13,8.7,16,16,3,7.3,3.1,15.4,0,22.7l-1.1,2.8,2.8,1.1,20.6,8.5,2.8,1.1,1.1-2.8c5.9-14.3,5.9-30,0-44.3-5.9-14.3-17.1-25.4-31.3-31.3-7-2.9-14.4-4.4-22-4.4h0Z"/>
    </g>
  </g>
</svg>