<?xml version="1.0" encoding="UTF-8"?>
<svg id="Layer_2" data-name="Layer 2" xmlns="http://www.w3.org/2000/svg" viewBox="0 0 117.9 115.1">
  <defs>
    <style>
      .cls-1 {
        fill: #00a167;
      }

      .cls-1, .cls-2 {
        stroke-width: 0px;
      }

      .cls-2 {
        fill: #353535;
      }
    </style>
  </defs>
  <g id="Layer_5" data-name="Layer 5">
    <g>
      <path class="cls-1" d="m9.5,113.6c-2.7,0-4.8-1.8-5.3-4.5-.3-1.6-.6-3.2-.9-4.7-1.3-6.3-2.7-12.7-1-19.3,1.9-7.6,6.9-12.1,13.5-12.1h.3c5.4.1,11,3,15.1,7.8,1.3,1.5,2.4,3.2,3.6,4.8,2.3,3.2,4.6,6.6,7.7,8.5,1,.6,1.9,1,2.7,1,2.8,0,4-5.6,4.1-10.8.3-9-1.7-17.6-3.6-24.8-2-7.5-3.6-15.1-5.2-22.4v-.3c-.4-1.7-.8-3.5-1.3-5.2-1.2-5.1-2.5-10.4-2.6-15.6,0-4.2,1.2-7.8,3.7-10.3,2.6-2.6,6.3-4,10.4-4s7.9,1.3,11.2,3.6c9.4,6.5,12.1,18.1,14.2,27.4,1,4.4,2.1,9.3,3.9,13.9,0,.2.2.5.3.7.4,1.1.9,2.5,1.5,2.5s.2,0,.5-.1c1.9-.7,2.6-4.4,3-6.6v-.4c1-5,.8-10.2.6-15.3,0-1.5-.1-2.9-.2-4.3v-.6c-.1-5.1-.3-11.4,3.6-15.7,2.2-2.4,5.3-3.7,9-3.7s5.2.7,7.5,1.9c4.6,2.4,8,6.8,10.3,13.5.6,1.8.4,3.6-.6,5-1.1,1.6-3.1,2.5-5.2,2.5h0c-2.7,0-4.9-1.6-5.8-4.1-1.1-3.2-2.5-5.2-4.2-6.1-1-.5-1.5-.6-1.7-.6s-.5,0-.7,1.4c-.6,3.8-.3,7.9-.1,11.8.2,2.6.3,5.3.3,7.9-.2,6-.9,13.7-4.6,19.3-2.6,3.9-7.3,6.5-12,6.5s-3.5-.4-5.1-1.1c-7.3-3.6-9.6-14.1-11.2-21.9-.2-1-.4-1.9-.6-2.8-.2-.7-.3-1.5-.5-2.3-1.7-7.8-3.8-17.6-11.5-20.1-.7-.2-1.4-.3-2.1-.3s-1.5,0-1.8.6c-.6,1.1,0,3.9.4,5.6,0,.4.2.8.2,1.2.7,4,1.6,8,2.4,11.9.6,3,1.3,6.1,1.9,9.2.8,4.2,2,8.4,3,12.5,1.6,6,3.2,12.1,4,18.4.8,6.4,1.9,22.2-5,29.9-2.5,2.9-5.9,4.3-9.9,4.3s-1.8,0-2.8-.2c-7.9-1.2-12.2-7-16.4-12.5-1.6-2.1-3.2-4.3-5-6.2-1-1-2.6-2.4-4.6-2.9-.4-.1-.8-.2-1.1-.2-.5,0-.9,0-1.7,2.4-1.4,4.4-.2,9.3.9,14.1.3,1.5.7,3,.9,4.5.3,1.9-.1,3.7-1.3,5.1-1.3,1.5-3.2,2.4-5.1,2.4Z"/>
      <path class="cls-2" d="m50.7,3c3.5,0,7.2,1.1,10.4,3.3,8.8,6.1,11.3,16.7,13.6,26.5,1.1,4.7,2.2,9.6,4,14.1.7,1.8,1.3,4.2,3.1,4.2s.6,0,1-.2c2.9-1.1,3.6-5.6,4-8.2,1.2-6.5.5-13.3.4-19.9-.1-5-.4-11.3,3.2-15.3,2-2.2,4.9-3.2,7.9-3.2,2.4,0,4.8.6,6.8,1.7,5,2.6,7.8,7.5,9.6,12.6,1.2,3.4-1.6,5.5-4.4,5.5s-3.7-.9-4.4-3.1c-.9-2.6-2.3-5.6-4.9-6.9-.9-.5-1.7-.7-2.4-.7-1.2,0-1.9.8-2.2,2.6-1,6.5.3,13.4.1,20-.2,6.1-.9,13.3-4.3,18.5-2.3,3.4-6.5,5.8-10.7,5.8s-3-.3-4.4-1c-7.6-3.7-9.3-16.3-11-23.6-1.9-8.1-3.7-20.5-13-23.5-.7-.2-1.7-.4-2.6-.4s-2.6.4-3.1,1.4c-1,1.9,0,5.8.5,7.8,1.3,7.1,2.9,14.1,4.3,21.1,2,10.4,5.8,20.3,7.1,30.8,1.3,10.8,1.4,32.6-13.5,32.6s-1.7,0-2.6-.2c-10.3-1.5-14.1-11.7-20.5-18.3-1.4-1.5-3.2-2.8-5.3-3.3-.6-.1-1-.2-1.5-.2-1.7,0-2.4,1.2-3.1,3.5-1.9,6.2.7,13.1,1.8,19.3.6,3.4-2.3,5.7-5,5.7s-3.4-1-3.8-3.3c-1.4-7.7-3.9-15.6-2-23.4,1.5-6,5.5-10.9,12-10.9,0,0,.2,0,.3,0,5.4.1,10.6,3.3,14,7.3,3.7,4.4,6.6,10.5,11.6,13.6,1.3.8,2.5,1.2,3.5,1.2,4.6,0,5.5-7.9,5.6-12.2.3-8.7-1.4-16.9-3.7-25.2-2-7.5-3.6-15-5.2-22.6-1.4-6.7-3.6-13.7-3.7-20.6-.2-8.6,5.8-12.9,12.6-12.9M50.7,0v3V0c-4.6,0-8.6,1.6-11.5,4.5-2.8,2.9-4.2,6.8-4.2,11.4,0,5.4,1.4,10.8,2.6,16,.4,1.8.8,3.5,1.2,5.2v.3c1.6,7.4,3.2,15,5.3,22.5,1.9,7.1,3.8,15.5,3.6,24.3-.2,6.1-1.6,9.3-2.6,9.3s-.8,0-1.9-.7c-2.8-1.7-5-4.8-7.3-8.1-1.2-1.7-2.3-3.4-3.7-4.9-4.4-5.1-10.4-8.2-16.2-8.3-.1,0-.2,0-.3,0-7.3,0-12.8,4.9-14.9,13.2-1.7,6.9-.3,13.5,1,20,.3,1.6.7,3.1.9,4.7.6,3.5,3.3,5.8,6.8,5.8s4.7-1.1,6.3-2.9c1.5-1.7,2-4,1.6-6.3-.3-1.5-.6-3.1-1-4.6-1-4.6-2.1-9.3-.9-13.3.2-.7.4-1.1.5-1.3.1,0,.3,0,.5,0,1.6.4,3,1.5,3.9,2.4,1.7,1.8,3.3,3.8,4.9,6,4.1,5.6,8.8,11.9,17.3,13.1,1,.2,2.1.2,3,.2,4.5,0,8.2-1.6,11.1-4.8,7.3-8.2,6.2-24.5,5.4-31.1-.8-6.4-2.4-12.6-4.1-18.6-1.1-4.1-2.2-8.2-3-12.4-.6-3.1-1.3-6.2-1.9-9.2-.8-3.9-1.7-7.9-2.4-11.9,0-.4-.2-.8-.3-1.2-.2-1-.7-3.4-.6-4.4.1,0,.3,0,.5,0,.5,0,1.1,0,1.6.3,6.8,2.2,8.8,11.5,10.4,19,.2.8.3,1.6.5,2.4.2.8.4,1.8.6,2.7,1.7,8,4,19,12,22.9,1.8.9,3.7,1.3,5.7,1.3,5.1,0,10.3-2.8,13.2-7.1,4-6,4.7-13.9,4.8-20.1,0-2.7,0-5.4-.3-8.1-.3-4-.5-7.8,0-11.3,0,0,.2,0,.3.1,1.4.7,2.5,2.4,3.5,5.3,1.1,3.2,3.9,5.1,7.2,5.1s5-1.2,6.4-3.1c1.3-1.8,1.6-4.1.8-6.4-2.4-7-6.1-11.7-11.1-14.3-2.5-1.3-5.4-2-8.2-2-4.1,0-7.6,1.5-10.1,4.2-4.3,4.7-4.1,11.4-4,16.8v.6c0,1.5.1,2.9.2,4.4.2,5,.4,10.2-.5,15v.4c-.3,1.2-.8,4.1-1.7,5.2-.2-.4-.3-.8-.5-1.2,0-.2-.2-.5-.3-.7-1.6-4.2-2.6-8.5-3.8-13.7-2.2-9.5-4.9-21.4-14.8-28.3C59.2,1.4,54.9,0,50.7,0h0Zm48.8,15.9h0s0,0,0,0h0Z"/>
    </g>
  </g>
</svg>