<?xml version="1.0" encoding="UTF-8"?>
<svg id="Layer_2" data-name="Layer 2" xmlns="http://www.w3.org/2000/svg" viewBox="0 0 115.5 15.3">
  <defs>
    <style>
      .cls-1 {
        fill: #00a167;
      }

      .cls-1, .cls-2 {
        stroke-width: 0px;
      }

      .cls-2 {
        fill: #353535;
      }
    </style>
  </defs>
  <g id="Layer_2-2" data-name="Layer 2">
    <g>
      <rect class="cls-1" x="1.5" y="1.5" width="112.5" height="12.3" rx="2.4" ry="2.4"/>
      <path class="cls-2" d="m111.6,15.3H3.9c-2.2,0-3.9-1.8-3.9-3.9V3.9C0,1.8,1.8,0,3.9,0h107.7c2.2,0,3.9,1.8,3.9,3.9v7.5c0,2.2-1.8,3.9-3.9,3.9ZM3.9,3c-.5,0-.9.4-.9.9v7.5c0,.5.4.9.9.9h107.7c.5,0,.9-.4.9-.9V3.9c0-.5-.4-.9-.9-.9H3.9Z"/>
    </g>
  </g>
</svg>