<?xml version="1.0" encoding="UTF-8"?>
<svg id="Layer_2" data-name="Layer 2" xmlns="http://www.w3.org/2000/svg" viewBox="0 0 94.3 94.3">
  <defs>
    <style>
      .cls-1 {
        fill: #00a167;
      }

      .cls-1, .cls-2 {
        stroke-width: 0px;
      }

      .cls-2 {
        fill: #353535;
      }
    </style>
  </defs>
  <g id="Layer_5" data-name="Layer 5">
    <g>
      <path class="cls-1" d="m47.1,92.8c-21.8,0-40.6-15.6-44.8-37C0,43.8,2.5,31.7,9.4,21.6,16.2,11.5,26.5,4.6,38.5,2.3c2.9-.6,5.8-.8,8.7-.8,21.8,0,40.6,15.6,44.8,37,4.8,24.7-11.5,48.7-36.2,53.5-2.9.6-5.8.8-8.7.8h0Z"/>
      <path class="cls-2" d="m47.2,3c20.7,0,39.2,14.7,43.3,35.8,4.6,23.9-11,47.1-35,51.7-2.8.5-5.6.8-8.4.8-20.7,0-39.2-14.7-43.3-35.8C-.8,31.6,14.9,8.4,38.8,3.8c2.8-.5,5.6-.8,8.4-.8m0-3c-3,0-6,.3-9,.9C25.9,3.2,15.2,10.3,8.1,20.7S-1.5,43.7.9,56.1c4.3,22.1,23.7,38.2,46.2,38.2s6-.3,9-.9c12.4-2.4,23.1-9.4,30.1-19.9,7.1-10.4,9.6-23,7.2-35.3C89.2,16.1,69.7,0,47.2,0h0Z"/>
    </g>
  </g>
</svg>