<?xml version="1.0" encoding="UTF-8"?>
<svg id="Layer_2" data-name="Layer 2" xmlns="http://www.w3.org/2000/svg" viewBox="0 0 81.9 87.9">
  <defs>
    <style>
      .cls-1 {
        fill: #00a167;
      }

      .cls-1, .cls-2 {
        stroke-width: 0px;
      }

      .cls-2 {
        fill: #353535;
      }
    </style>
  </defs>
  <g id="Layer_5" data-name="Layer 5">
    <g>
      <polygon class="cls-1" points="1.6 60.3 7.1 18.1 46.5 1.7 80.3 27.6 74.8 69.9 35.4 86.2 1.6 60.3"/>
      <path class="cls-2" d="m46.3,3.4l32.5,24.9-5.3,40.5-37.8,15.7L3.2,59.7l5.3-40.5L46.3,3.4m.4-3.4l-1.6.7L7.3,16.3l-1.6.7-.2,1.7L.2,59.3l-.2,1.7,1.4,1.1,32.5,24.9,1.4,1.1,1.6-.7,37.8-15.7,1.6-.7.2-1.7,5.3-40.5.2-1.7-1.4-1.1L48.1,1.1l-1.4-1.1h0Z"/>
    </g>
  </g>
</svg>