<?xml version="1.0" encoding="UTF-8"?>
<svg id="Layer_2" data-name="Layer 2" xmlns="http://www.w3.org/2000/svg" viewBox="0 0 169 169">
  <defs>
    <style>
      .cls-1 {
        fill: #ff4949;
      }

      .cls-1, .cls-2, .cls-3, .cls-4 {
        stroke-width: 0px;
      }

      .cls-2 {
        fill: #fff;
      }

      .cls-3 {
        fill: #353535;
      }

      .cls-4 {
        fill: #fdfbf3;
      }
    </style>
  </defs>
  <g id="Layer_4" data-name="Layer 4">
    <g>
      <g>
        <circle class="cls-4" cx="84.5" cy="84.5" r="84.5" transform="translate(-35 84.5) rotate(-45)"/>
        <path class="cls-3" d="m87.8,13.9C48.9,12,15.7,42.3,13.9,81.2c-1.8,39,28.4,72.1,67.3,74,39,1.8,72.1-28.4,74-67.3,1.8-39-28.4-72.1-67.3-74Zm-5.7,122.1c-28.4-1.3-50.4-25.5-49.1-53.9l3.4.2c-1.2,26.5,19.3,49,45.8,50.3,26.5,1.2,49-19.3,50.3-45.8l3.4.2c-1.3,28.4-25.5,50.4-53.9,49.1Z"/>
        <path class="cls-3" d="m64,8.2C21.9,19.5-3.1,62.8,8.2,105c11.3,42.2,54.7,67.2,96.8,55.8,42.2-11.3,67.2-54.7,55.8-96.8C149.5,21.9,106.2-3.1,64,8.2Zm92.1,57.1c10.6,39.5-12.9,80.2-52.4,90.9-39.5,10.6-80.2-12.9-90.9-52.4C2.3,64.2,25.8,23.5,65.3,12.9c39.5-10.6,80.2,12.9,90.9,52.4Z"/>
      </g>
      <g>
        <g>
          <rect class="cls-1" x="31.7" y="67.5" width="4.7" height="4.7"/>
          <rect class="cls-1" x="36.4" y="67.5" width="4.7" height="4.7"/>
          <rect class="cls-1" x="41.1" y="67.5" width="4.7" height="4.7"/>
          <rect class="cls-1" x="45.7" y="67.5" width="4.7" height="4.7"/>
          <rect class="cls-1" x="50.4" y="67.5" width="4.7" height="4.7"/>
          <rect class="cls-1" x="55.1" y="67.5" width="4.7" height="4.7"/>
          <rect class="cls-1" x="59.8" y="67.5" width="4.7" height="4.7"/>
          <rect class="cls-1" x="64.4" y="67.5" width="4.7" height="4.7"/>
          <rect class="cls-1" x="69.1" y="67.5" width="4.7" height="4.7"/>
          <rect class="cls-1" x="73.8" y="67.5" width="4.7" height="4.7"/>
          <rect class="cls-1" x="36.4" y="72.1" width="4.7" height="4.7"/>
          <rect class="cls-1" x="41.1" y="72.1" width="4.7" height="4.7"/>
          <rect class="cls-1" x="45.7" y="72.1" width="4.7" height="4.7"/>
          <rect class="cls-1" x="50.4" y="72.1" width="4.7" height="4.7"/>
          <rect class="cls-1" x="55.1" y="72.1" width="4.7" height="4.7"/>
          <rect class="cls-1" x="64.4" y="72.1" width="4.7" height="4.7"/>
          <rect class="cls-1" x="69.1" y="72.1" width="4.7" height="4.7"/>
          <rect class="cls-1" x="41.1" y="76.8" width="4.7" height="4.7"/>
          <rect class="cls-1" x="45.7" y="76.8" width="4.7" height="4.7"/>
          <rect class="cls-1" x="50.4" y="76.8" width="4.7" height="4.7"/>
          <rect class="cls-1" x="59.8" y="76.8" width="4.7" height="4.7"/>
          <rect class="cls-1" x="64.4" y="76.8" width="4.7" height="4.7"/>
          <rect class="cls-1" x="45.7" y="81.5" width="4.7" height="4.7"/>
          <rect class="cls-1" x="50.4" y="81.5" width="4.7" height="4.7"/>
          <rect class="cls-1" x="55.1" y="81.5" width="4.7" height="4.7"/>
          <rect class="cls-1" x="59.8" y="81.5" width="4.7" height="4.7"/>
          <rect class="cls-1" x="83.2" y="67.5" width="4.7" height="4.7"/>
          <rect class="cls-1" x="87.8" y="67.5" width="4.7" height="4.7"/>
          <rect class="cls-1" x="92.5" y="67.5" width="4.7" height="4.7"/>
          <rect class="cls-1" x="97.2" y="67.5" width="4.7" height="4.7"/>
          <rect class="cls-1" x="101.9" y="67.5" width="4.7" height="4.7"/>
          <rect class="cls-1" x="106.6" y="67.5" width="4.7" height="4.7"/>
          <rect class="cls-1" x="111.2" y="67.5" width="4.7" height="4.7"/>
          <rect class="cls-1" x="115.9" y="67.5" width="4.7" height="4.7"/>
          <rect class="cls-1" x="120.6" y="67.5" width="4.7" height="4.7"/>
          <rect class="cls-1" x="125.3" y="67.5" width="4.7" height="4.7"/>
          <rect class="cls-1" x="87.8" y="72.1" width="4.7" height="4.7"/>
          <rect class="cls-1" x="92.5" y="72.1" width="4.7" height="4.7"/>
          <rect class="cls-1" x="97.2" y="72.1" width="4.7" height="4.7"/>
          <rect class="cls-1" x="101.9" y="72.1" width="4.7" height="4.7"/>
          <rect class="cls-1" x="106.6" y="72.1" width="4.7" height="4.7"/>
          <rect class="cls-1" x="115.9" y="72.1" width="4.7" height="4.7"/>
          <rect class="cls-1" x="120.6" y="72.1" width="4.7" height="4.7"/>
          <rect class="cls-1" x="92.5" y="76.8" width="4.7" height="4.7"/>
          <rect class="cls-1" x="97.2" y="76.8" width="4.7" height="4.7"/>
          <rect class="cls-1" x="101.9" y="76.8" width="4.7" height="4.7"/>
          <rect class="cls-1" x="111.2" y="76.8" width="4.7" height="4.7"/>
          <rect class="cls-1" x="115.9" y="76.8" width="4.7" height="4.7"/>
          <rect class="cls-1" x="97.2" y="81.5" width="4.7" height="4.7"/>
          <rect class="cls-1" x="101.9" y="81.5" width="4.7" height="4.7"/>
          <rect class="cls-1" x="106.6" y="81.5" width="4.7" height="4.7"/>
          <rect class="cls-1" x="111.2" y="81.5" width="4.7" height="4.7"/>
          <rect class="cls-1" x="3.6" y="67.5" width="4.7" height="4.7"/>
          <rect class="cls-1" x="8.3" y="67.5" width="4.7" height="4.7"/>
          <rect class="cls-1" x="13" y="67.5" width="4.7" height="4.7"/>
          <rect class="cls-1" x="17.7" y="67.5" width="4.7" height="4.7"/>
          <rect class="cls-1" x="22.3" y="67.5" width="4.7" height="4.7"/>
          <rect class="cls-1" x="27" y="67.5" width="4.7" height="4.7"/>
          <rect class="cls-1" x="130" y="67.5" width="4.7" height="4.7"/>
          <rect class="cls-1" x="134.6" y="67.5" width="4.7" height="4.7"/>
          <rect class="cls-1" x="139.3" y="67.5" width="4.7" height="4.7"/>
          <rect class="cls-1" x="144" y="67.5" width="4.7" height="4.7"/>
          <rect class="cls-1" x="148.7" y="67.5" width="4.7" height="4.7"/>
          <rect class="cls-1" x="153.3" y="67.5" width="4.7" height="4.7"/>
          <rect class="cls-1" x="158" y="67.5" width="4.7" height="4.7"/>
          <rect class="cls-1" x="78.5" y="67.5" width="4.7" height="4.7"/>
        </g>
        <g>
          <rect class="cls-2" x="59.8" y="72.1" width="4.7" height="4.7"/>
          <rect class="cls-2" x="55.1" y="76.8" width="4.7" height="4.7"/>
          <rect class="cls-2" x="111.2" y="72.1" width="4.7" height="4.7"/>
          <rect class="cls-2" x="106.6" y="76.8" width="4.7" height="4.7"/>
        </g>
      </g>
    </g>
  </g>
</svg>